<?xml version="1.0" encoding="UTF-8"?>
<!-- Created with Inkscape (http://www.inkscape.org/) -->
<svg width="407.15" height="493.61" version="1.1" viewBox="0 0 407.15 493.61" xmlns="http://www.w3.org/2000/svg">
 <defs>
  <clipPath id="clipPath37855">
   <path d="m0 0h306v371h-306z"/>
  </clipPath>
 </defs>
 <g transform="matrix(1.3333 0 0 1.3333 0 1.5674e-5)">
  <path d="m152.6 1.141h151.64v222.88c0 80.106-67.851 145.03-151.54 145.03-83.691 0-151.55-64.926-151.55-145.03v-222.88z" fill="#fff"/>
  <g clip-path="url(#clipPath37855)">
   <path d="m152.6 1.141h151.64v222.88c0 80.106-67.851 145.03-151.54 145.03-83.691 0-151.55-64.926-151.55-145.03v-222.88z" fill="none" stroke="#010202" stroke-width="2.286"/>
  </g>
  <g fill="#010202">
   <path d="m102.67 76.633c16.23 6.039 33.945 12.914 37.898 16.125 1.129 0.918-11.129 11.125-11.679 31.265-8.528 3.493-10.914-0.304-10.914-0.304s-2.344 0.355-3.047 1.879c-6.207-3.578-4.797-8.414-9.188-5.473-1.031 0.691-5.207-7.277-6.996-3.727-4.465-1.019-4.012-5.839-5.23-6.109-1.203-0.25-3.762 1.688-4.461 0.379-1.125-2.203-2.426-4.809-2.86-5.191-0.457-0.372-1.031 1.218-2.906 0.628-1.91-0.609-2.945-5.078-4.594-5.714-3.402 1.199-5.132-3.86-5.336-4.543-0.558 1.386-5.148 1.867-4.472-0.489 2.363-8.191-10.02-10.007-8.602-17.882-17.742-2.774-13.109-31.43-16.59-32.036-6.418-1.128-10.859-0.726-10.859-0.726s0.719-4.625 9.684-5.199c-4.59-2.989-10.801-3.77-10.801-3.77s2.679-3.617 13.816-1.687c-2.301-5.25-8.172-7.836-8.172-7.836s6.867-1.571 13.723 4.129c-0.34-6.571-5.738-11.914-5.738-11.914s6.707-0.821 12.816 9.539c1.707-6.227-0.582-12.844-0.582-12.844s7.184 0.926 8.879 13.894c5.863 7.762 1.387 19.289 7.375 32.621 3.328 7.418 15.254 9.93 28.836 14.985"/>
   <path d="m125.02 257.22c5.007-17.063 22.035-27.668 39.3-26.25 0.914-3.516 1.7-7.418 1.383-8.039-10.125-21.387-16.152-22.793-16.152-22.793s-22.32-5.004-35.809 1.254c-2.699 1.265-22.851 13.195-18.883 14.074 6.52 1.429-2.593 5.636-4.046 9.14-1.434 3.504 2.14 2.661 2.3 3.082 0.399 1.067-9.015 10.184-6.675 10.664 8.738 1.688-3.926 10.372-1.223 11.016 7.523 1.77-1.699 9.332 0.988 9.715 0.949 0.125 2.789 0.598 4.278 0.809-0.836 1.488-3.071 5.765-2.582 10.195 0.207 2.051 2.621-1.867 3.847 0.832-6.191 5.016 5.387 19.359 6.199 27.902-4.191 0.469-3.492-4.816-7.125-6.379-1.964 3.567-5.957 3.528-10.718 2.371-4.739-1.16-10.297-3.468-15.368-3.539-11.179-2.816-15.824 0.996-16.843 2.274 0.332 0.105 4.258 0.996 9.875 3.406-9.485 0.691-11.172 6.391-11.172 6.391s4.883-0.282 10.957 0.902c-9.844 4.957-8.488 10.441-8.488 10.441s5.453-3.199 11.066-3.632c-3.039 2.25-5.551 7.183-3.691 10.711 2.234-2.075 6.539-4.043 8.089-4.688-2.089 4.723-1.769 8.168 0.532 10.688 6.121-8.368 8.332-7.852 10.113-7.723 0.973 0.086 3.617 0.926 7.512 1.328 3.238 0.34 7.343 0.219 12.039 0.488 11.261 0.645 24.344 1.012 32.953-7.617-2.66-19.219-7.492-40.609-2.656-57.023"/>
   <path d="m144.06 70.055s-0.52 5.746 3.707 6.121c1.363 0.109 6.379-0.36 12.871 0.515 13.652 1.813 29.144 6.676 40.453-4.351 9.75-9.535 2.098-23.641 10.863-29.656 7.195-4.981 15.117-0.493 15.434 1.429-10.758-3.922-13.02-0.445-14.262 0.383-8.672 5.828 4.277 35.488-28.664 36.367-11.473 0.309-23.547 0.926-28.781 5.989-2.969 2.851-5.942 2.691-10.219 6.554-11.672 10.449-12.09 23.645-13.301 30.114-0.48 2.546 0.844 1.738 0.844 1.738s7.371-1.867 11.894-2.403c0.809-0.109 0.907 0.364 0.907 0.364s0.246 0.89-0.782 0.961c-15.058 0.89-54.976 18.343-72.898 18.527-1.129-0.246-11.57-2.605-12.863-8.199 1.449-1.758 8.129 8.531 14.386 5.387-7.367-6.047-11.894-20.399-20.285-24.715-5.39-15.438-12.3-15.703-12.3-15.703s3.957 12.949 2.695 15.546c-10.871-10.421-16.91-7.464-16.91-7.464l9.691 12.199s-11.18-5.086-16.418-0.645c6.531 2.25 12.492 6.41 12.336 7.774-0.812 0.136-10.137-0.715-12.094 4.547 3.703 0.445 10.231 2.273 11.293 4.093-3.871 1.735-10.965 4.219-10.008 10.133 4.832-0.949 8.606-3.652 12.93-3.012 5.867-1.785 10.883 4.403 17.567 11.04 7.863 7.808 19.371 15.21 24.796 13.031 1.313-0.528 0.547-1.731 1.508-1.895 0.985-0.148 7.625 5.582 8.125 3.949 1.653-5.437 1.891-2.484 4.879-1.171 1.516 0.656 3.922 0.152 5.969 1.699 1.312-5.84 9.738 2.941 11.652-2.102 4.219 0.625 8.707 3.492 8.043-1.402 5.446 3.383 5.938 1.637 8.684 2.914 0.258-4.992 5.801-0.957 7.867-0.996 21.707-0.43 27.059-6.688 31.199-15.184 1.676-3.433 3.528-3.199 2.977-1.195-3.082 10.832-10.875 18.668-29.086 17.816-1.012-0.05-1.485 0.356-1.899 0.973s-0.398 1.113-0.289 3.305c0.172 4.5 12.852 18.984 19.821 28.945 9.132 13.031 12.625 19.758 11.507 22.656-1.953 5.145-5.808 32.532-5.621 33.399 0.2 0.867 1.672 1.64 3.149 0.433 1.769 1.84-1.637 8.895 0.562 9.071 1.641-1.043 3.692-1.946 3.692-1.946s-3.442 7.922 1.5 11.707c0.648-2.215 2.593-3.832 2.593-3.832s-0.972 7.676 3.821 9.821c0.07-0.481 0.015-0.797 0.551-3.235 2.871 9.281 4.23 10.137 4.968 9.481 0.774-0.621-1.383-3.879 1.133-3.164 0.859 8.097 3.399 7.992 3.399 7.992s0.316-0.34 1.523-2.227c2.863 6.879 18.785 13.746 15.906 30.258-0.562 0.371-1.875 0.316-2.261-0.961-0.391-1.277-1.387-5.039-1.852-5.555-0.457-0.515-1.828-2.168-12.469-3.304-10.664-1.102-15.937 3.738-15.937 3.738s-11.789-3.516-18.094 3.926c3.727-0.785 12.922 3.621 12.922 3.621s-9.465 2.039-10.906 10.687c6.726-3.117 13.593-2.261 13.593-2.261s-8.347 5.718-6.66 13.804c5.875-5.519 12.051-6.961 12.051-6.961s-5.672 8.52-0.973 14.192c2.297-2.977 6.469-9.211 9.633-8.731 1.277 8.438 6.645 11.426 7.395 10.829 0.722-0.586-1.453-7.793 3.957-12.247 9.285-1.992 32.09-5.898 40.91-24.984-1.039-5.891-19.699-33.551-19.309-53.453 0.114-5.574 0.961-27.582 0.961-27.582s0.68-11.641-4.43-20.227c3.165 0.235 4.395 5.883 6.2 6.903 1.836 1.031 3.269-1.559 3.269-1.559l-0.672-4.851 3.625 3.925s3.125-6.175 0.504-13.808c-2.625-7.637-14.875-21.996-16.57-27.039-1.16-3.504-3.387-18.407-4.242-23.848-0.879-5.438-0.574-22.992-0.574-22.992s2.578 0.383 4.253 1.722c1.372-1.453-0.656-6.386-0.046-7.117 0.574 0.957 2.89 1.043 4.265 2.336 2.215-4.058 0.258-8.019 0.047-8.535 3.727 1.441 7.16 1.133 7.711-0.16-1.418-1.301-3.379-9.012-3.281-9.984 1.441-0.633 5.531 2.632 6.246 1.453-2.227-3.129-1.02-7.965-4.535-13.328 1.3-0.922 2.679 0.765 4.254-1.508-6.871-9.703 1.57-18.504 0.855-25.739-1.184-11.527-8.238-13.476-8.238-13.476s18.574-0.082 14.683-13.496c-3.925-13.391-13.57-4.86-19.886-8.309-6.317-3.457-6.164-12.617-15.891-13.113-13.769-0.715-32.137 8.625-42.824 8.625-3.317-0.02-2.887 0.523-10.801-1.559-2.074 10.039 2.047 11.094 0.852 13.442-2.219 4.386-1.383 5.496-1.383 5.496l1.172 0.023c-0.321 1.547-0.457 4.516 1.976 7.891 2.922-4.031 3.887-6.582 4.211-7.781l0.809 0.019c-0.129 1.844-0.059 5.231 1.906 7.762 2.961-2.664 3.992-6.051 4.352-7.652h0.171s6.735-0.446 11.024 1.683c4.312 2.121 4.133 9.609 4.133 9.609s-11.692-3.503-16.719-3.394c-7.129 0.129-18.172 2.828-24.875 1.422-6.723-1.41-12.797-10.016-12.797-10.016s-10.551 14.942 13.035 18.492c5.262 0.789 10.219 0.493 14.508-0.125 0 0 11.238-2.203 13.652-2.5 2.383-0.296 12.204 0.969 12.204 0.969s-0.551 3.184-5.379 3.184c-1.606 4e-3 -20.75-0.332-20.75-0.332"/>
   <path d="m200.43 24.461c5.172-6.27 25.3-2.133 16.054 12.781-7.941 1.996-8.726-11.617-16.054-12.781"/>
  </g>
  <g fill="#e8423f">
   <path d="m115.95 57.602c0 1.058 0.199 2.039 0.617 2.918 1.551 3.468 6.09 5.785 13.489 6.89 4.363 0.653 8.937 0.617 14.062-0.121 0.078-0.016 11.184-2.191 13.684-2.5 2.14-0.266 8.859 0.508 11.633 0.852 0 0 0.882 0.113 1.207 0.156 0.132-0.527 0.351-1.496 0.449-2.004-0.317-0.109-1.301-0.34-1.301-0.34-2.559-0.73-11.332-3.14-15.305-3.051-2.523 0.051-5.582 0.43-8.828 0.836-5.843 0.727-11.879 1.5-16.386 0.555-5.262-1.109-10.028-6.074-12.25-8.711-0.532 1.215-1.071 2.82-1.071 4.52"/>
   <path d="m144.06 208.09s5.789-1.594 14.336 1.406c1.128 1.899 3.355 5.145 4.949 8.66-3.293-3.468-19.285-10.066-19.285-10.066"/>
   <path d="m23.086 118.98c3.566 1.515 7.812 3.902 9.652 5.988 0.645-1.488 2.153-3.613 2.707-4.336-1.797-0.719-8.043-2.992-12.359-1.652"/>
   <path d="m22.422 130.52c2.59 0.504 6.875 1.649 9.125 3.223-0.047-0.578-0.09-1.148-0.09-1.711 0-1.363 0.141-2.672 0.375-3.949-1.269 0-7.508 0.102-9.41 2.437"/>
   <path d="m29.109 108.42c0.524 0.66 7.981 10.055 8.254 10.398 1.317-1.007 4.289-2.644 5.246-3.171-6.539-6.196-11.129-7.262-13.5-7.227"/>
   <path d="m22.883 144.06c1.062-0.293 2.133-0.625 3.414-1.094 2.246-0.82 4.57-1.66 7.094-1.617-0.625-1.442-1.129-3-1.473-4.641-1.441 0.566-8.734 3.613-9.035 7.352"/>
   <path d="m45.238 113.42c0 0.738-0.101 1.277-0.222 1.723 1.129-0.129 4.769-0.481 6.882-0.246-3.175-8.79-6.793-12.133-8.945-13.407 0.914 3.282 2.285 8.684 2.285 11.93"/>
   <path d="m157.62 319.56c4.309 0.738 9.727 3.293 10.344 3.593 0 0 0.543 0.27 0.883 0.403-0.024-0.117-0.024-0.235-0.024-0.352 0-2.344 0.762-4.23 2.168-5.66-3.32-0.574-9.086-0.949-13.371 2.016"/>
   <path d="m170.82 333.68c-0.058 0.035-6.035 4.277-6.293 10.265 4.707-3.808 9.172-5.238 10.266-5.531-0.691-0.715-1.313-1.558-1.914-2.543 0.012 0.012 0 0.012-0.902-1.699 0 0-0.383-0.68-0.516-0.938-0.125 0.071-0.316 0.211-0.641 0.446"/>
   <path d="m167.65 325.45c-0.066 0.012-6.875 1.641-9.222 7.524 6.109-2.157 11.582-1.571 11.793-1.524 0 0 0.304 0.024 0.539 0.059-1.02-2.18-1.633-4.301-1.875-6.328-0.18 0.047-0.551 0.117-1.235 0.269"/>
   <path d="m185.36 344.72c0.02 0.023 0.02 0.058 0.02 0.058 0.832 5.415 3.402 8.364 5.004 9.411v-1.219c0-2.238 0.293-5.496 2.476-8.379-2.086 0.703-4.703 0.762-7.5 0.129"/>
   <path d="m176.5 340.18c-0.027 0.047-2.617 4.019-2.617 8.101 0 1.219 0.269 2.297 0.718 3.27 2.145-2.895 5.192-6.938 8.282-7.652-2.328-0.832-4.543-2.11-6.383-3.719"/>
   <path d="m65.043 28.551s0.012-4e-3 0.012-0.016c-1.043-6.828-3.676-9.887-5.563-11.242 0.297 1.359 0.578 3.129 0.613 5.117 0.043 1.848-0.125 3.852-0.671 5.844l-0.161 0.598c2.075-0.563 4.059-0.672 5.77-0.301"/>
   <path d="m57.008 28.527c-3.094-5.265-6.32-7.402-8.555-8.297 1.652 2.305 3.723 5.918 3.945 10.055l0.051 1.113c1.699-0.878 3.403-1.539 5.074-1.988z"/>
   <path d="m45.281 35.219c-5.148-0.899-8.289-0.535-10.14 0.015 2.297 0.567 5.445 1.582 8.172 3.329l0.429 0.281c0.735-1.09 1.676-2.203 2.77-3.258z"/>
   <path d="m42.609 40.695c-4.582 0.297-6.664 1.684-7.648 2.778 1.336 0 4.098 0.136 6.879 0.429 0.062-1.019 0.344-2.113 0.871-3.218z"/>
   <path d="m51.258 32.074-1.035-0.871c-3.219-2.664-6.399-3.605-8.743-3.906 3.969 2.605 5.817 6.836 6.051 7.383 0.391-0.395 2.051-1.629 3.266-2.356 0.141-0.082 0.289-0.16 0.461-0.25"/>
   <path d="m62.504 310.81-1.629 1.207c-2.133 1.593-3.832 4.476-3.832 7.031 0 0.222 0.051 0.41 0.07 0.633 2.649-1.875 6.114-3.375 6.895-3.704l2.152-0.89c-1.406-1.254-2.683-2.688-3.656-4.277"/>
   <path d="m60.242 304.28-2.137 1.055c-5.398 2.742-7.132 5.508-7.652 7.285 2.192-1.051 5.813-2.473 9.57-2.773l1.891-0.133c-0.078-0.16-0.184-0.317-0.254-0.492-0.707-1.582-1.176-3.278-1.418-4.942"/>
   <path d="m60.328 297.99-2.492 0.176c-5.391 0.387-7.945 2.473-9.117 3.973 2.043 0.035 5.293 0.211 9.066 0.949l2.371 0.457c-0.222-1.902-0.133-3.82 0.172-5.555"/>
   <path d="m65.656 317.57c-0.847 1.946-1.293 3.656-1.293 5.145 0 1.113 0.282 2.074 0.735 2.953 3.461-4.477 5.734-6.152 7.586-6.656-2.102-0.797-4.204-2.028-6.071-3.575z"/>
   <path d="m50.531 293.04c1.782 0.528 4.446 1.406 7.731 2.813l2.32 0.996c0.484-1.875 1.231-3.528 2.215-4.735-6.547-1.359-10.359-0.164-12.266 0.926"/>
   <path d="m214.4 54.293s-1.265 0.125-1.195 0.91c0.074 0.801 1.02 0.926 1.02 0.926s5.125 1.387 6.422-4.27c-0.864 2.704-6.247 2.434-6.247 2.434"/>
   <path d="m215.02 50.148c-0.433-0.093-1.769 0.629-1.746 1.426 0.024 0.426 0.493 0.449 0.946 0.52 2.078 0.297 6.715-3.375 4.644-4.055-0.844-0.281-1.031 2.277-3.844 2.109"/>
   <path d="m191.17 32.016c-0.527-0.524-16.77 5.394-17.117 8.297-0.024 0.234 0.324 0.988 1.148 0.812 0.61-0.129 8.672-0.961 14.86-0.633 2.378 0.133 4.523 0.66 5.777 1.153 1.676 0.636 4.008 0.39 4.109-0.329 0.074-0.738-5.902-2.441-8.531-2.652-4.77-0.402-14.238 0.797-14.238 0.797s14.73-6.691 13.992-7.445"/>
  </g>
  <g fill="#fff">
   <path d="m143.69 52.566c0 1.047 0.203 2.368 0.949 3.856 1.586-2.434 2.445-4.359 2.804-5.387-1.328-0.086-2.621 0.024-3.586-0.043-0.089 0.399-0.167 0.93-0.167 1.574"/>
   <path d="m150.82 52.09c0 1.332 0.188 3.055 0.926 4.59 1.672-1.981 2.465-4.328 2.801-5.645-1.246 0-2.543-8e-3 -3.684-0.097-0.023 0.335-0.043 0.714-0.043 1.152"/>
   <path d="m64.742 66.449c3.356-12.187-5.301-23.742-5.144-33.168-2.801 7.141 1.441 14.77 2.933 22.36 1.645 8.3 1.133 15.129-4.551 15.078-1.066 0.027-0.972 1.07-0.363 1.058 4.981-0.218 6.156-2.425 7.125-5.328"/>
   <path d="m189.66 42.402c0.602 0.43 0.996 1.125 0.996 1.899 0 1.324-1.097 2.371-2.437 2.371-1.367 0-2.457-1.047-2.457-2.371 0-0.863 0.465-1.594 1.191-2.016-2.215 0.477-4.191 1.981-4.191 2.801 0 0.969 2.715 3 5.367 3.094 2.531 0.09 5.027-2.192 5.027-2.946-4e-3 -0.605-1.593-2.226-3.496-2.832"/>
  </g>
  <g>
   <path d="m145.58 65.477c-0.504 0.929-1.129 2.39-1.129 4.05 0 1.797 0.699 3.34 2.035 4.477l0.301 0.246h5.535l-1.136-1.547c-0.727-0.957-1.215-2.168-1.766-3.531-0.625-1.625-1.242-3.024-2.238-3.949l-0.981-0.875z" fill="#010202"/>
   <path d="m152.7 65.188c-0.508 1.05-1.133 2.785-1.133 5.148 0 0.883 0.133 1.879 0.348 2.906l0.168 0.813 2.84-0.117c-0.02 0 2.554-0.086 2.554-0.086l1.809-0.047-1.008-1.45c-0.586-0.847-1.078-1.968-1.617-3.171-0.664-1.536-1.332-3.012-2.23-4.164l-1.004-1.282z" fill="#010202"/>
   <path d="m148.48 69.52c-0.593-1.457-1.144-2.801-2.003-3.594-0.563 1.008-1.004 2.269-1.004 3.601 0 0.192 0.011 0.379 0.035 0.563 0.808 0.012 1.918 0.039 3.219 0.062-0.09-0.222-0.168-0.422-0.247-0.632" fill="#fff"/>
   <path d="m155.76 69.563c-0.653-1.422-1.301-2.875-2.141-3.961-0.391 0.812-0.992 2.394-1.019 4.601 1.128 0.024 2.293 0.047 3.453 0.07-0.11-0.242-0.2-0.472-0.293-0.71" fill="#fff"/>
  </g>
 </g>
</svg>
