<?xml version="1.0" encoding="UTF-8"?>
<!-- Created with Inkscape (http://www.inkscape.org/) -->
<svg width="407.54" height="494.06" version="1.1" viewBox="0 0 407.54 494.06" xmlns="http://www.w3.org/2000/svg">
 <defs>
  <clipPath id="clipPath47448">
   <path d="m0 0h306v371h-306z"/>
  </clipPath>
 </defs>
 <g transform="matrix(1.3333 0 0 1.3333 0 1.1685e-5)">
  <path d="m152.72 1.148h151.8v223.1c0 80.156-67.926 145.15-151.69 145.15-83.777 0-151.68-64.993-151.68-145.15v-223.1z" fill="#fff"/>
  <g clip-path="url(#clipPath47448)">
   <path d="m152.72 1.148h151.8v223.1c0 80.156-67.926 145.15-151.69 145.15-83.777 0-151.68-64.993-151.68-145.15v-223.1z" fill="none" stroke="#010202" stroke-width="2.286"/>
  </g>
  <g fill="#010202">
   <path d="m4.871 184.21v0.961s9.422 1.34 13.305 8.035c3.871 6.68 36.191 86.789 35.734 89.438 0.504 0.047 0.863-0.188 0.863-0.188l35.227-87.726s3.395-8.856 11.73-8.797c2.125-0.188 3.114-0.383 3.114-0.383v-0.961l-32.125 0.199v0.945h3.469s9.5-0.023 6.042 11.114c-3.468 11.136-22.46 66.086-22.46 66.086s-24.75-62.16-25.719-69.907c-0.973-7.757 8.808-7.675 8.808-7.675h2.231v-0.953z"/>
   <path d="m257.01 276.46s-7.864-1.336-8.824-6.133c-0.973-4.805-0.391-40.266-0.391-40.266s0.844-0.828 1.359-0.582c0.52 0.258 1.832 2.004 1.832 2.004s18.61 43.629 39.844 43.969c1.922 0 2.742 0.313 4.453-0.07-21.551-21.41-25.945-38.344-28.101-41.625-2.157-3.293 0.886-4.629 1.906-4.664 26.269-0.821 27.871-20.918 27.984-23.192 0.59-11.168-8.965-16.746-15.125-18.797-6.176-2.039-19.758-2.296-19.758-2.296l-18.605 0.761h-5.371l-13.402-1.758s-0.567 0.075-0.625 0.27c-0.047 0.199 0.121 0.406 0.187 0.566 0.668 1.45 8.578 2.657 9.246 4.953 1.313 4.524-0.199 78.422-0.199 78.422s-1.488 7.664-11.129 8.438c0.105 0.117 0 0.949 0 0.949h34.719z"/>
   <path d="m97.68 75.602c15.211 5.218 39.55 14.73 43.812 17.472-1.902 1.883-10.625 11.153-14.062 31.367-7.766 3.516-10.075-0.316-10.075-0.316s-3.023 0.137-3.632 1.672c-5.821-3.613-4.672-8.504-8.633-5.531-0.93 0.699-5.293-7.141-6.848-3.532-4.125-1.054-3.851-5.914-4.984-6.183-1.117-0.258-3.426 1.695-4.09 0.383-1.121-2.243-2.383-4.875-2.797-5.25-0.422-0.383-1.703 0.691-3.461 0.086-1.765-0.602-2.855-5.125-4.398-5.774-3.102 1.199-4.836-3.918-5.039-4.613-0.469 1.406-4.696 1.887-4.129-0.504 1.945-8.285-11-8.035-9.906-16-16.45-2.809-12.93-33.399-16.168-34.008-5.942-1.148-10.024-0.746-10.024-0.746s0.527-4.687 8.77-5.25c-4.317-3.031-10.067-3.816-10.067-3.816s2.356-3.672 12.684-1.711c-2.266-5.301-7.758-7.93-7.758-7.93s6.301-1.586 12.789 4.176c-0.523-6.649-5.66-12.051-5.66-12.051s6.164-0.832 12.101 9.648c1.399-6.296-0.917-12.996-0.917-12.996s6.648 0.95 8.585 14.078c5.629 7.832 1.844 19.508 7.727 32.989 3.285 7.519 13.227 9.894 26.18 14.34"/>
   <path d="m125.11 256.65c5.008-17.062 21.977-28.406 39.223-26.976 0.906-3.527 1.68-6.692 1.387-7.313-10.118-21.386-16.125-23.789-16.125-23.789s-22.293-4.757-35.723 1.512c-2.699 1.266-22.801 13.934-18.84 14.789 6.504 1.442-2.597 5.66-4.031 9.152-1.445 3.516 2.121 2.672 2.293 3.106 0.402 1.055-9.008 10.184-6.664 10.641 8.719 1.722-3.926 10.382-1.215 11.027 7.5 1.781-1.688 9.328 0.977 9.726 0.953 0.141 2.785 0.598 4.257 0.809-0.832 1.488-3.039 5.777-2.582 10.207 0.223 2.039 2.633-1.875 3.864 0.809-6.18 5.027 5.371 19.371 6.171 27.925-4.179 0.481-3.472-4.804-7.101-6.363-1.969 3.539-5.941 3.528-10.691 2.356-4.743-1.172-10.282-3.481-15.344-3.551-11.125-2.813-15.758 1.019-16.77 2.285 0.324 0.109 4.227 1.008 9.832 3.41-9.461 0.676-11.125 6.418-11.125 6.418s4.86-0.305 10.907 0.895c-9.805 4.949-8.45 10.422-8.45 10.422s5.43-3.204 11.02-3.622c-3.016 2.235-5.52 7.161-3.664 10.723 2.215-2.098 6.504-4.066 8.051-4.699-2.071 4.723-1.758 8.176 0.515 10.687 6.129-8.375 8.328-7.855 10.102-7.711 0.972 0.071 3.613 0.903 7.484 1.325 3.234 0.328 7.34 0.211 12.016 0.492 11.246 0.621 24.265 0.996 32.859-7.645-2.633-19.23-7.457-40.629-2.633-57.047"/>
  </g>
  <g>
   <path d="m200.32 23.805c5.172-6.282 25.231-2.133 16.031 12.785-7.906 1.984-8.718-11.637-16.031-12.785" fill="#0a0406"/>
   <path d="m157.46 72.238v8e-3h0.012z" fill="#fff"/>
   <path d="m144.1 207.49s5.796-1.593 14.32 1.43c1.133 1.887 3.34 5.133 4.945 8.66-3.285-3.469-19.265-10.09-19.265-10.09" fill="#e8423f"/>
   <path d="m143.34 123.05c-39.313 7.371-70.426 32.949-85.93 10.625 4.414 0.871 8.078 8.789 14.004 5.941-7.254-6.297-12.055-20.683-20.246-25.293-5.684-15.492-12.316-16.043-12.316-16.043s4.16 12.981 3.046 15.485c-10.757-10.766-16.496-8.082-16.496-8.082l9.68 12.468s-10.926-5.511-15.805-1.332c6.356 2.493 12.211 6.864 12.09 8.2-0.777 0.109-9.789-1.137-11.496 3.968 3.59 0.614 9.906 2.696 11.004 4.539-3.672 1.559-10.437 3.7-9.328 9.602 4.621-0.738 8.16-3.274 12.348-2.426 5.585-1.512 15.269 10.863 16.207 12.082 0.921 1.219 19.863 19.231 26.781 11.742 0.469-0.515 6.914 4.489 7.918 3.098 3.344-4.598 2.742-2.965 5.117-0.766 1.215 1.133 4.289-0.382 5.723 1.735 3.125-5.086 10.398 1.746 13.836-2.399 3.777 1.957 6.066 4.02 7.043-0.82 4.023 4.953 5.078 0.012 8.546 3.441-0.285-4.734 2.649-2.828 8.086-1.929 3.512 0.586 8.25 0.058 13.219-0.668 12.649-1.828 17.629-12.469 18.527-14.309 1.645-3.445 3.532-3.199 2.946-1.183-3.071 10.832-9.719 19.882-27.922 19.019-0.996-0.047-1.469 0.383-1.899 0.984-0.418 0.614-0.402 1.118-0.285 3.309 0.18 4.5 12.285 17.777 19.242 27.738 9.106 13.055 12.024 19.77 10.922 22.68-1.945 5.145-6.039 32.059-5.859 32.93 0.187 0.875 1.664 1.652 3.117 0.422 1.781 1.839-1.605 8.906 0.574 9.07 1.649-1.031 3.68-1.922 3.68-1.922s-3.434 7.91 1.512 11.695c0.621-2.191 2.566-3.832 2.566-3.832s-0.961 7.664 3.797 9.821c0.082-0.493 8e-3 -0.809 0.559-3.246 2.863 9.293 4.211 10.16 4.961 9.503 0.75-0.625-1.383-3.871 1.125-3.175 0.867 8.105 3.394 7.992 3.394 7.992s0.305-0.328 1.512-2.207c2.863 6.871 18.996 14.207 16.176 30.762-0.586 0.339-1.891 0.304-2.286-0.973-0.378-1.266-1.375-5.039-1.851-5.559-0.457-0.519-1.805-2.175-12.434-3.297-10.629-1.109-15.914 3.715-15.914 3.715s-11.754-3.504-18.039 3.953c3.742-0.8 12.899 3.61 12.899 3.61s-9.426 2.043-10.879 10.687c6.715-3.105 13.57-2.261 13.57-2.261s-8.332 5.73-6.633 13.816c5.856-5.531 12-6.961 12-6.961s-5.64 8.547-0.961 14.203c2.274-2.976 6.457-9.195 9.606-8.754 1.297 8.473 6.648 11.449 7.375 10.856 0.738-0.602-1.453-7.809 3.961-12.246 9.246-2.004 32.004-5.911 40.793-24.996-0.996-5.911-19.641-33.579-19.243-53.508 0.094-5.543 0.938-27.578 0.938-27.578s0.676-12.875-4.406-21.442c3.176 0.235 4.379 5.879 6.199 6.899 1.816 1.043 3.246-1.559 3.246-1.559l-0.68-4.852 3.629 3.938s3.121-6.176 0.492-13.828c-2.621-7.641-14.835-22.492-16.511-27.535-1.18-3.516-3.383-16.719-4.242-22.157-0.875-5.449-0.563-22.019-0.563-22.019s2.566 0.379 4.242 1.723c1.352-1.465-0.668-6.411-0.066-7.129 0.57 0.949 2.894 1.043 4.242 2.32 2.227-4.043 0.297-8.004 0.066-8.52 3.727 1.43 7.153 1.129 7.692-0.164-1.422-1.3-3.375-9.023-3.293-9.98 1.43-0.641 5.531 2.629 6.258 1.453-2.239-3.141-1.032-7.957-4.524-13.332 1.301-0.934 2.649 0.762 4.242-1.512-6.855-9.715 1.571-19.496 0.832-26.718-1.175-11.543-8.199-13.5-8.199-13.5s18.52-0.09 14.633-13.497c-3.902-13.414-13.523-4.859-19.824-8.308-6.293-3.449-6.145-12.617-15.86-13.113-13.703-0.715-32.039 8.64-42.699 8.64-3.316-0.023-2.883 0.508-10.785-1.574-2.07 10.035 2.02 11.094 0.836 13.441-2.211 4.387-1.391 5.508-1.391 5.508l1.184 0.024c-0.336 1.539-0.461 4.515 1.961 7.882 2.902-4.019 3.883-6.57 4.199-7.773l0.836 0.016c-0.141 1.843-0.062 5.238 1.895 7.757 2.941-2.656 3.984-6.027 4.336-7.64l0.175 4e-3s6.7-0.457 11 1.668c4.301 2.136 4.125 10.343 4.125 10.343s-11.672-3.503-16.703-3.402c-7.097 0.145-18.121 2.836-24.808 1.422-6.692-1.402-12.77-10.008-12.77-10.008s-10.523 14.227 13.012 17.766c5.25 0.797 10.16 0.5 14.469-0.114 0 0 11.218-2.199 13.628-2.5 2.403-0.3 12.176 0.965 12.176 0.965s-0.562 3.184-5.367 3.184c-1.605 0-20.727-0.32-20.727-0.32s-0.515 5.742 3.715 6.101c1.36 0.11 6.36-0.347 12.84 0.516 13.617 1.82 29.074 6.683 40.336-4.352 9.727-9.527 2.102-23.636 10.832-29.668 7.18-4.98 15.102-0.484 15.395 1.438-10.746-3.914-12.989-0.457-14.231 0.375-8.625 5.844 4.27 35.511-28.57 36.383-11.438 0.308-23.484 0.925-28.711 5.976-2.961 2.863-5.922 2.711-10.227 6.57-11.629 10.454-12.855 23.282-14.07 29.75-0.48 2.543 0.813 1.735 0.813 1.735s6.187-1.992 10.707-2.535c0.796-0.094 0.882 0.379 0.882 0.379s0.016 0.558-0.773 0.949" fill="#010202"/>
  </g>
  <g fill="#e8423f">
   <path d="m21.391 116.56c3.57 1.652 7.839 4.211 9.761 6.39 0.582-1.488 1.969-3.59 2.473-4.308-1.805-0.801-8.059-3.309-12.234-2.082"/>
   <path d="m21.66 128.28c2.578 0.602 6.852 1.907 9.117 3.575-0.058-0.575-0.125-1.157-0.14-1.735-0.059-1.375 0.023-2.695 0.203-3.984-1.258-0.055-7.399-0.168-9.18 2.144"/>
   <path d="m27.246 106.33c0.555 0.699 8.192 10.547 8.473 10.895 1.265-0.957 4.152-2.497 5.078-2.977-6.652-6.566-11.192-7.832-13.551-7.918"/>
   <path d="m22.434 141.91c1.011-0.281 2.05-0.601 3.269-1.059 2.18-0.785 4.41-1.593 6.891-1.511-0.711-1.473-1.289-3.059-1.707-4.719-1.391 0.551-8.399 3.492-8.453 7.289"/>
   <path d="m43.07 111.4c0.051 0.746 0 1.297-0.121 1.743 1.129-0.11 4.692-0.446 6.801-0.165-3.766-8.96-7.551-12.39-9.762-13.714 1.137 3.347 2.84 8.843 3.082 12.136"/>
   <path d="m157.66 319.01c4.305 0.761 9.684 3.304 10.317 3.586 0 0 0.539 0.273 0.879 0.433 0-0.125-0.024-0.246-0.024-0.383 0-2.332 0.746-4.218 2.156-5.632-3.293-0.602-9.046-0.957-13.328 1.996"/>
   <path d="m170.81 333.12c-0.059 0.047-6.012 4.301-6.282 10.289 4.7-3.809 9.141-5.238 10.274-5.543-0.699-0.715-1.356-1.558-1.934-2.543 0.016 0.024 0.016 0.012-0.91-1.699 0 0-0.375-0.68-0.504-0.949-0.121 0.101-0.297 0.222-0.644 0.445"/>
   <path d="m167.68 324.91c-0.086 0.024-6.871 1.629-9.2 7.524 6.071-2.137 11.52-1.571 11.754-1.536 0 0 0.282 0.036 0.516 0.059-0.996-2.16-1.621-4.289-1.855-6.328-0.196 0.059-0.536 0.148-1.215 0.281"/>
   <path d="m185.34 344.19c4e-3 0.023 0.016 0.058 0.016 0.058 0.832 5.402 3.375 8.363 4.976 9.422 0-0.434-0.023-1.219-0.023-1.219 0-2.25 0.316-5.519 2.508-8.383-2.094 0.704-4.7 0.754-7.477 0.122"/>
   <path d="m176.49 339.63c-0.023 0.047-2.617 4.019-2.617 8.109 0 1.207 0.258 2.305 0.73 3.278 2.11-2.907 5.157-6.938 8.223-7.637-2.316-0.836-4.488-2.113-6.336-3.75"/>
   <path d="m62.645 27.078 0.015-0.012c-1.441-7.023-4.168-10.128-6.09-11.453 0.379 1.379 0.754 3.203 0.934 5.25 0.164 1.91 0.137 3.989-0.25 6.059l-0.121 0.617c1.972-0.621 3.855-0.793 5.512-0.461"/>
   <path d="m54.895 27.074c-3.223-5.402-6.403-7.582-8.602-8.472 1.699 2.355 3.848 6.058 4.246 10.343l0.113 1.153c1.578-0.93 3.172-1.645 4.758-2.137z"/>
   <path d="m43.836 34.199c-5.004-0.773-7.996-0.332-9.727 0.293 2.25 0.528 5.34 1.481 8.059 3.223l0.434 0.281c0.628-1.168 1.457-2.324 2.464-3.445z"/>
   <path d="m41.93 39.949c-4.391 0.457-6.301 1.969-7.141 3.133 1.277-0.047 3.934 0 6.637 0.211-0.031-1.059 0.179-2.188 0.586-3.344z"/>
   <path d="m49.457 30.938-1.035-0.875c-3.207-2.708-6.301-3.641-8.563-3.918 3.922 2.621 5.891 6.972 6.141 7.539 0.375-0.407 1.922-1.692 3.02-2.465 0.156-0.102 0.285-0.184 0.437-0.281"/>
   <path d="m62.77 310.28-1.618 1.199c-2.125 1.59-3.832 4.489-3.832 7.051 0 0.192 0.059 0.403 0.082 0.625 2.625-1.886 6.082-3.379 6.875-3.703l2.157-0.902c-1.43-1.246-2.692-2.707-3.664-4.27"/>
   <path d="m60.516 303.73-2.118 1.086c-5.418 2.719-7.128 5.485-7.632 7.243 2.156-1.02 5.773-2.446 9.523-2.743l1.891-0.16c-0.086-0.14-0.184-0.308-0.254-0.457-0.703-1.605-1.164-3.293-1.41-4.969"/>
   <path d="m60.613 297.43-2.484 0.187c-5.379 0.387-7.926 2.473-9.109 3.973 2.043 0.023 5.269 0.199 9.046 0.937l2.36 0.481c-0.203-1.922-0.117-3.832 0.187-5.578"/>
   <path d="m65.934 317.04c-0.868 1.937-1.286 3.648-1.286 5.148 0 1.11 0.254 2.082 0.704 2.942 3.464-4.477 5.718-6.141 7.562-6.656-2.07-0.809-4.184-2.028-6.055-3.575z"/>
   <path d="m50.84 292.48c1.773 0.536 4.43 1.418 7.687 2.821l2.332 0.984c0.473-1.883 1.219-3.516 2.196-4.746-6.535-1.332-10.317-0.16-12.215 0.941"/>
   <path d="m214.26 53.625s-1.266 0.137-1.176 0.922c0.07 0.793 1.008 0.918 1.008 0.918s5.125 1.406 6.402-4.266c-0.848 2.723-6.234 2.426-6.234 2.426"/>
   <path d="m214.89 49.488c-0.418-0.09-1.782 0.641-1.746 1.422 0.027 0.438 0.503 0.465 0.949 0.528 2.078 0.304 6.715-3.372 4.633-4.055-0.848-0.281-1.008 2.293-3.836 2.105"/>
   <path d="m191.1 31.344c-0.504-0.52-16.719 5.398-17.063 8.312-0.031 0.235 0.328 0.981 1.141 0.801 0.609-0.137 8.64-0.973 14.812-0.621 2.403 0.125 4.512 0.637 5.778 1.141 1.664 0.648 3.984 0.394 4.074-0.332 0.086-0.727-5.879-2.438-8.489-2.653-4.746-0.414-14.203 0.805-14.203 0.805s14.711-6.692 13.95-7.453"/>
  </g>
  <g>
   <path d="m63.254 66.117c2.754-12.336-5.555-24.031-5.672-33.566-2.375 7.226 1.723 14.953 3.344 22.621 1.75 8.394 1.469 15.305-3.77 15.25-0.972 0.023-0.867 1.09-0.316 1.074 4.601-0.195 5.625-2.441 6.414-5.379" fill="#fff"/>
   <path d="m189.59 41.734c0.625 0.442 1.008 1.133 1.008 1.918 0 1.301-1.098 2.36-2.434 2.36-1.348 0-2.449-1.059-2.449-2.36 0-0.859 0.48-1.609 1.191-2.011-2.222 0.457-4.191 1.976-4.191 2.797 0 0.964 2.719 2.988 5.367 3.085 2.531 0.075 5.004-2.191 5.004-2.949-4e-3 -0.605-1.594-2.226-3.496-2.84" fill="#fff"/>
   <path d="m145.63 64.82c-0.512 0.938-1.129 2.407-1.129 4.051 0 1.797 0.703 3.352 2.027 4.492l0.297 0.235h5.535l-1.144-1.532c-0.727-0.972-1.227-2.179-1.766-3.543-0.629-1.621-1.234-3.035-2.23-3.949l-0.969-0.883z" fill="#010202"/>
   <path d="m152.75 64.551c-0.516 1.043-1.121 2.781-1.121 5.133 0 0.902 0.105 1.879 0.328 2.921l0.164 0.821 2.84-0.129c-0.012 0 2.539-0.07 2.539-0.07l1.801-0.055-1.004-1.453c-0.563-0.836-1.066-1.981-1.594-3.168-0.668-1.535-1.347-3.016-2.234-4.168l-0.996-1.285z" fill="#010202"/>
  </g>
  <g fill="#fff">
   <path d="m143.72 51.918c0 1.039 0.23 2.371 0.965 3.855 1.593-2.433 2.449-4.359 2.8-5.382-1.304-0.09-2.609 0.023-3.586-0.043-0.101 0.382-0.179 0.918-0.179 1.57"/>
   <path d="m150.86 51.441c0 1.321 0.188 3.047 0.918 4.59 1.688-1.988 2.481-4.34 2.805-5.644-1.231 0-2.543-0.016-3.68-0.106-0.019 0.336-0.043 0.711-0.043 1.16"/>
   <path d="m148.5 68.863c-0.566-1.453-1.125-2.8-1.984-3.586-0.559 1.012-1.016 2.266-1.016 3.594 0 0.192 0.019 0.383 0.035 0.578 0.824 0.012 1.934 0.031 3.223 0.047-0.082-0.199-0.172-0.418-0.258-0.633"/>
   <path d="m155.77 68.922c-0.621-1.43-1.285-2.871-2.121-3.961-0.398 0.812-1 2.391-1.023 4.605 1.133 0.024 2.316 0.039 3.457 0.063-0.102-0.242-0.195-0.465-0.313-0.707"/>
   <path d="m280.84 206.21s1.301 3.398-1.321 10.512c-2.613 7.097-14.824 9.187-14.824 9.187s-12.328 1.625-16.14 0.75c-1.993-4.14-0.371-35.472-0.371-35.472s3.773-2.309 12.949-2.614c17.062-0.582 19.707 17.637 19.707 17.637"/>
  </g>
  <path d="m116.07 57.75c0 0.965 0.207 1.883 0.602 2.703 1.57 3.192 6.098 5.328 13.48 6.352 4.328 0.601 8.907 0.562 14.024-0.106 0.07-0.019 11.14-2.027 13.637-2.308 2.144-0.246 8.847 0.464 11.625 0.785 0 0 0.878 0.101 1.207 0.14 0.105-0.496 0.328-1.378 0.429-1.847-0.336-0.086-1.285-0.305-1.285-0.305-2.555-0.68-11.309-2.898-15.277-2.828-2.516 0.047-5.574 0.394-8.821 0.781-5.832 0.672-11.859 1.379-16.343 0.512-5.274-1.027-9.996-5.606-12.215-8.055-0.524 1.117-1.063 2.598-1.063 4.176" fill="#e8423f"/>
 </g>
</svg>
