<?xml version="1.0" encoding="UTF-8"?>
<!-- Created with Inkscape (http://www.inkscape.org/) -->
<svg width="406.54" height="492.85" version="1.1" viewBox="0 0 406.54 492.85" xmlns="http://www.w3.org/2000/svg">
 <defs>
  <clipPath id="clipPath27640">
   <path d="m0 0h305v370h-305z"/>
  </clipPath>
  <clipPath id="clipPath27716">
   <path d="m0 0h305v370h-305z"/>
  </clipPath>
 </defs>
 <g transform="matrix(1.3333 0 0 1.3333 0 1.3655e-5)">
  <g>
   <path d="m152.35 1.141h151.42v222.54c0 79.968-67.761 144.8-151.32 144.8-83.57 0-151.31-64.832-151.31-144.8v-222.54z" fill="#e8423f"/>
   <path d="m216.42 46.391c0 20.492-18.203 37.113-40.652 37.113-22.457 0-40.657-16.621-40.657-37.113 0-20.5 18.2-37.114 40.657-37.114 22.453 0 40.652 16.614 40.652 37.114" fill="#ffd730"/>
  </g>
  <g clip-path="url(#clipPath27640)">
   <path d="m175.77 9.281c22.457 0 40.656 16.614 40.656 37.11s-18.199 37.109-40.656 37.109-40.657-16.613-40.657-37.109 18.204-37.11 40.657-37.11z" fill="none" stroke="#010202" stroke-miterlimit="10" stroke-width="2.49"/>
  </g>
  <g>
   <path d="m35.293 24.133 38.59 311.77 11.457-1.265-35.789-312.09z" fill="#010202"/>
   <path d="m38.18 26.41c0.066 0.469 37.906 306.2 37.968 306.64 0.415-0.059 5.899-0.649 6.329-0.696-0.063-0.476-35.153-306.49-35.204-306.97-0.441 0.062-8.656 0.972-9.093 1.019" fill="#ffd730"/>
   <path d="m40.688 12.316c-7.352 0.926-12.793 5.922-12.137 11.149 0.672 5.23 7.183 8.711 14.523 7.781 4.328-0.539 8.203-2.543 10.379-5.332 1.387-1.812 2.004-3.82 1.754-5.82-0.66-5.227-7.176-8.719-14.519-7.778" fill="#010202"/>
   <path d="m41.004 14.879c-5.641 0.711-9.918 4.094-9.918 7.691 0 0.188 0.012 0.383 0.035 0.571 0.488 3.812 5.703 6.304 11.641 5.547 3.644-0.461 6.886-2.094 8.64-4.364 0.965-1.254 1.395-2.609 1.235-3.898-0.481-3.813-5.696-6.297-11.633-5.547" fill="#ffd730"/>
   <path d="m50.727 91.668c-7.094 0.914-12.325 5.758-11.672 10.797 0.652 5.039 6.941 8.398 14.023 7.488 7.086-0.902 12.305-5.754 11.668-10.797-0.648-5.039-6.933-8.398-14.019-7.488" fill="#010202"/>
   <path d="m51.051 94.242c-5.375 0.688-9.465 3.91-9.465 7.352 0 0.179 0.012 0.371 0.035 0.551 0.469 3.617 5.457 5.976 11.125 5.242 5.66-0.727 9.895-4.27 9.418-7.895-0.453-3.629-5.437-5.988-11.113-5.25" fill="#ffd730"/>
   <path d="m80.707 121.76c30.727-2.656 67.754-13.387 84.281-53.399 16.254 0 20.813-1.093 20.813-1.093s5.988 7.902 34.558 22.945c5.414 2.844 21.903 61.941 21.903 61.941s3.047 11.696-5.473 12.68c-8.519 0.961-23.965 0.328-23.965 0.328s19.871 156.55 20.016 157.89c-1.125 0.316-7.891 3.902-15.621 7.945-7.664 3.984-16.313 8.449-21.41 9.715-0.329 0.094-4.102 1.016-5.836-2.438-1.735-3.433 0.644-6.05 0.644-6.05l16.711-14.731s0.469-0.836 0.445-1.406c-0.039-0.586-0.777-0.809-0.777-0.809l-27.316-0.211-25.7-132.46-3.019 0.68 24.934 132.18-53.356 0.035 14.109-173.17-54.16-0.152c8e-3 0-1.633-18.825-1.781-20.422" fill="#010202"/>
   <path d="m185.47 83.484 1.98-15.132-4.769 10.351h-14.141l-3.973-9.555 1.77 14.336z" fill="#fff"/>
  </g>
  <g fill="#ffd730">
   <path d="m164.15 117.53h35.848v24.109h-35.848z"/>
   <path d="m157.19 117.53h5.383v24.109h-5.383z"/>
   <path d="m152.41 117.53h3.379v24.109h-3.379z"/>
  </g>
  <g>
   <path d="m202.09 46.391c0 13.957-12.145 25.261-27.121 25.261-14.989 0-27.133-11.304-27.133-25.261 0-13.953 12.144-25.266 27.133-25.266 14.976 0 27.121 11.313 27.121 25.266" fill="#010202"/>
   <path d="m174.36 35.215c6.235 0.121 17.129-2.168 14.942 11.105-0.457 2.774 0 6.426 0 6.426s0.41 4.25-0.117 7.063c-0.938 8.496-2.895 10.121-12.645 10.468-11.508 0.411-11.297-0.726-13.172-5.394-4.254-12.957-2.496-22.91-2.496-22.91s1.051-6.969 13.488-6.758" fill="#fff"/>
   <path d="m142.11 318.11s-12.742 0-19.957-0.043c-4.82 6.77-19.418 4.747-23.312 4.957-3.418 0.2-5.774 2.415-5.774 5.977 0 3.582 2.965 6.012 6.157 6.012h36.648c4.453 0 5.785-4.02 5.785-4.02z" fill="#010202"/>
   <path d="m181.36 160.3-2.207-17.063-11.808 0.082h-11.028c-0.468 0-0.859 0.493-0.859 1.071 0 0.601 0.379 1.082 0.859 1.082h8.766s0.223 1.519-0.426 1.554c0 0-9.664 0.176-10.097 0.176-0.446 0-3.215-2.437-3.215-2.437-0.16-0.161-0.227-0.235-0.293-0.328-0.113-0.165-0.153-0.434-0.153-0.434 0-0.492-0.152-0.938-0.71-0.973-0.567-0.035-0.997 0.321-1.059 0.824-0.137 1.106 0.047 1.204 0.129 1.325 0.074 0.125 0.18 0.32 3.523 3.64 0.16 0.235 0.578 0.387 0.848 0.383l8.828-0.051 0.082 1.641h-8.973c-0.48 0-0.863 0.48-0.863 1.078 0 0.59 0.375 1.07 0.863 1.07h9.055l0.082 1.524h-8.719c-0.472 0-0.871 0.48-0.871 1.066 0 0.602 0.391 1.071 0.871 1.071h8.825l0.058 1.609h-8.32c-0.488 0-0.871 0.48-0.871 1.066 0 0.598 0.375 1.078 0.871 1.078h11.215c0.035 0 0.082-0.035 0.129-0.035h15.468z" fill="#fff"/>
   <path d="m44.535 122.86c0 1.375 0.961 3.578 3.688 3.578h10.351v15.911l43.196-0.161-1.981-20.941-55.254-0.055z" fill="#010202"/>
   <path d="m81.234 140.56-1.66-17.657-33.39-0.035c0 0.688 0.429 1.953 2.046 1.953h11.985v15.778z" fill="#fff"/>
   <path d="m49.191 124.83c-1.519 0-2.75 1.289-2.75 2.891 0 1.593 1.231 2.879 2.75 2.879h10.461c1.532 0 2.758-1.293 2.758-2.879 0-1.61-1.226-2.891-2.758-2.891z" fill="#010202"/>
   <path d="m49.191 126.47c-0.609 0-1.101 0.562-1.101 1.254 0 0.675 0.492 1.242 1.101 1.242h10.461c0.621 0 1.125-0.567 1.125-1.242 0-0.692-0.504-1.254-1.125-1.254z" fill="#fff"/>
   <path d="m49.957 129.29c-1.516 0-2.73 1.277-2.73 2.863 0 1.559 1.214 2.852 2.73 2.852h10.117c1.5 0 2.723-1.293 2.723-2.852 0-1.586-1.223-2.863-2.723-2.863z" fill="#010202"/>
   <path d="m49.957 130.93c-0.602 0-1.094 0.543-1.094 1.218 0 0.657 0.492 1.207 1.094 1.207h10.117c0.594 0 1.086-0.55 1.086-1.207 0-0.675-0.492-1.218-1.086-1.218z" fill="#fff"/>
   <path d="m50.328 133.64c-1.492 0-2.68 1.183-2.68 2.636 0 1.442 1.188 2.633 2.68 2.633h10.219c1.488 0 2.695-1.191 2.695-2.633 0-1.453-1.207-2.636-2.695-2.636z" fill="#010202"/>
   <path d="m50.328 135.29c-0.598 0-1.09 0.434-1.09 0.984 0 0.555 0.492 0.985 1.09 0.985h10.219c0.609 0 1.086-0.43 1.086-0.985 0-0.55-0.481-0.984-1.086-0.984z" fill="#fff"/>
   <path d="m50.977 137.38c-1.469 0-2.668 1.113-2.668 2.496 0 1.391 1.199 2.531 2.668 2.531h9.687c1.481 0 2.672-1.137 2.672-2.531 0-1.383-1.191-2.496-2.672-2.496z" fill="#010202"/>
   <path d="m50.977 139.02c-0.567 0-1.032 0.382-1.032 0.859 0 0.48 0.465 0.875 1.032 0.875h9.687c0.582 0 1.031-0.395 1.031-0.875 0-0.469-0.449-0.859-1.031-0.859z" fill="#fff"/>
  </g>
  <g fill="#010202">
   <path d="m167.85 50.164c0 0.922-0.75 1.656-1.645 1.656-0.91 0-1.648-0.734-1.648-1.656 0-0.91 0.738-1.648 1.648-1.648 0.895-4e-3 1.645 0.738 1.645 1.648"/>
   <path d="m182.81 50.164c0 0.922-0.739 1.656-1.665 1.656-0.89 0-1.64-0.734-1.64-1.656 0-0.91 0.75-1.648 1.64-1.648 0.926-4e-3 1.665 0.738 1.665 1.648"/>
   <path d="m176.73 44.668c-0.36 0.297-0.383 0.809-0.114 1.168 0.301 0.344 1.321 0.66 1.664 0.367 0.094-0.082 2.883-1.594 3.586-1.465 1.242 0.239 2.754 0.668 4.5 1.547 0.41 0.203 0.879 0.188 1.16-0.172 0.282-0.379 0.059-1.09-0.332-1.359-5.574-4.043-10.414-0.125-10.464-0.086"/>
   <path d="m163.94 44.598c-0.418 0.172-0.605 0.66-0.429 1.086 0.187 0.421 0.972 0.757 1.383 0.57 0.89-0.379 3.199-1.301 4.593-0.336 0.821 0.594 1.172 1.797 1.043 3.59-0.527 7.5-0.48 9.656-0.48 9.754 0.012 0.441 0.359 0.797 0.797 0.816l6.773 0.258c0.457 0.019 0.504-1.641 0.067-1.664 0 0-4.688 0.164-5.93 0.109 0.027-1.144 0.086-4.082 0.445-9.14 0.024-0.278 0.024-0.528 0.024-0.801 0-1.985 0.234-3.438-0.922-4.289-2.582-1.887-7.207-0.035-7.364 0.047"/>
   <path d="m170.87 63.816c-0.683 0-1.242 0.547-1.242 1.235 0 0.683 0.559 1.246 1.242 1.246h7.5c0.692 0 1.254-0.563 1.254-1.246 0-0.688-0.562-1.235-1.254-1.235z"/>
  </g>
  <g clip-path="url(#clipPath27716)">
   <path d="m152.35 1.141h151.42v222.54c0 79.968-67.761 144.8-151.32 144.8-83.57 0-151.31-64.832-151.31-144.8v-222.54z" fill="none" stroke="#010202" stroke-width="2.286"/>
  </g>
 </g>
</svg>
