<?xml version="1.0" encoding="UTF-8" standalone="no"?>
<svg xmlns:dc="http://purl.org/dc/elements/1.1/" xmlns:cc="http://creativecommons.org/ns#" xmlns:rdf="http://www.w3.org/1999/02/22-rdf-syntax-ns#" xmlns:svg="http://www.w3.org/2000/svg" xmlns="http://www.w3.org/2000/svg" viewBox="0 0 226.77333 264.57333" height="264.57333" width="226.77333" xml:space="preserve" id="svg2" version="1.1"><metadata id="metadata8"><rdf:RDF><cc:Work rdf:about=""><dc:format>image/svg+xml</dc:format><dc:type rdf:resource="http://purl.org/dc/dcmitype/StillImage"/></cc:Work></rdf:RDF></metadata><defs id="defs6"/><g transform="matrix(1.3333333,0,0,-1.3333333,0,264.57333)" id="g10"><g transform="scale(0.1)" id="g12"><path id="path14" style="fill:#ffffff;fill-opacity:1;fill-rule:evenodd;stroke:none" d="M 850.391,17.5 C 391.137,17.5 17.5,391.129 17.5,850.391 V 1966.75 H 1683.29 V 850.391 C 1683.29,391.129 1309.66,17.5 850.391,17.5"/><path id="path16" style="fill:#231f20;fill-opacity:1;fill-rule:nonzero;stroke:none" d="M 1700.79,1984.25 H 0 V 850.391 C 0,380.73 380.734,0 850.391,0 1320.06,0 1700.79,380.73 1700.79,850.391 V 1984.25 Z m -35,-35 V 850.391 C 1665.79,400.781 1300.01,35 850.391,35 400.781,35 35,400.781 35,850.391 V 1949.25 h 1630.79"/><path id="path18" style="fill:#ed1c24;fill-opacity:1;fill-rule:evenodd;stroke:none" d="m 892.203,1016.46 c -6.269,1.01 -22.871,-2.04 -28.308,-3.48 -5.954,-1.59 -21.571,-7.66 -22.497,-13.57 -0.918,-5.906 4.204,-8.402 8.875,-7.933 1.051,0.117 1.907,0.128 2.86,0.191 -3.563,3.234 -5.867,7.398 -0.188,10.932 11.008,6.84 37.129,6.61 37.129,6.61 0,0 1.477,-0.04 3.586,-0.16 0.477,3.11 1.883,6.87 -1.457,7.41"/><path id="path20" style="fill:#ed1c24;fill-opacity:1;fill-rule:evenodd;stroke:none" d="m 925.289,1009.37 c -3.25,0.38 -4.93,-2.31 -6.414,-5.47 4.824,-1.87 9.383,-4.384 12.801,-7.837 3.469,-3.5 6.777,-6.797 9.797,-9.797 1.179,1.48 2.304,3.047 3.211,4.894 2.082,4.281 -10.02,17.08 -19.395,18.21"/><path id="path22" style="fill:#231f20;fill-opacity:1;fill-rule:nonzero;stroke:none" d="m 749.934,939.52 c 0,0 -0.161,1.558 -1.157,3.191 -1.898,3.148 -13.054,4.301 -22.933,1.598 -18.789,-5.137 -36.668,-4.789 -55.168,6.023 -5.649,3.297 -12.262,10.137 -14.117,16.699 -2.832,9.949 0.949,19.59 11.574,25.184 9.715,-25.004 32.933,-23.215 52.758,-26.625 14.746,-2.531 30.074,-1.551 45.14,-2.121 14.824,-0.547 28.403,-3.59 36.856,-22.617 l -52.953,-1.332"/><path id="path24" style="fill:#231f20;fill-opacity:1;fill-rule:nonzero;stroke:none" d="m 799.871,940.852 c 6.43,0 12.602,5.687 12.602,14.347 0,10.692 -8.356,16.981 -18.813,17.699 -14.969,1.043 -30,1.391 -45.012,1.34 -5.925,-0.019 -11.511,-0.5 -10.199,7.633 1.067,6.59 -0.726,15.93 11.254,15.133 9.281,-0.621 18.695,-0.277 27.961,0.609 3.152,0.309 9.063,0.856 9.031,5.547 -0.027,4.51 -5.937,6.24 -9.293,6.15 -6.519,-0.19 -25.734,-2.7 -25.179,1.27 2.211,15.69 7.515,21.34 24.492,23.97 16.984,2.62 50.793,8.02 61.086,10.62 10.297,2.6 13.402,9.43 39.832,14.62 26.426,5.19 31.25,12.57 22.863,37.34 15.301,1.14 20.176,-4.21 28.309,-31.01 12.043,6.43 13.976,15.59 6.379,30.31 11.171,1.53 21.296,-5.64 26.062,-17.98 1.484,-3.83 2.5,-10.07 6.145,-10.26 3.64,-0.21 16.375,-1.57 26.199,4.15 18.73,10.87 31.66,17.94 40.96,-43.14 0.35,-2.32 9.67,17.84 9.04,27.55 -0.55,8.42 2.42,11.54 10.33,10.67 10.51,-1.15 48.7,-3.9 60.86,-0.29 28.31,9.35 21.64,-35.02 21.64,-44.27 1.63,-0.34 3.28,-0.68 4.91,-1.02 3.29,9.54 6.57,19.07 10.5,30.47 19.57,-5.68 39.68,-11.8 59.97,-17.24 4.7,-1.25 10.33,-1.39 14.93,0 14.01,4.22 25.62,-4.09 25.32,-19.14 -0.11,-5.38 -2.94,-25.7 0.11,-33.129 5.91,6.082 10.1,34.379 24.42,24.849 12.24,-6.53 24.45,-13.197 37.06,-18.962 4.82,-2.204 10.74,-3.227 16.02,-2.879 15.96,1.043 25.21,-7.09 23.71,-23.098 -0.67,-7.231 -3.19,-14.352 -5.48,-21.32 -1.75,-5.27 -4.49,-10.2 -6.79,-15.282 0.86,-0.757 1.7,-1.5 2.54,-2.238 4.85,0.641 17.39,14 19.1,20.231 66.18,-61.473 47.76,-162.133 6.51,-162.032 39.21,88.641 -122.9,229.93 -385.23,220.99 -3.809,0.08 -9.891,1.32 -11.551,-5.583 -1.633,-6.778 -0.285,-18.547 6.238,-18.957 13.117,-0.84 35.063,-4.149 44.393,4.101 8.93,7.906 20.4,5.024 25.47,-11.672 2.34,-11.328 2.3,-37.89 2.3,-37.89 0,0 12.39,31.91 27.61,27.082 10.07,-3.18 32.31,-7.961 40.26,-1.86 10.62,8.188 26.35,-0.16 26.75,-14.152 0.33,-11.957 -4.58,-38.469 -4.58,-38.469 0,0 20.09,25.68 30,21.988 9.9,-3.66 37.6,-18.398 40.86,-16.527 9.92,5.711 17.43,5.238 22.8,-1.641 15.46,-17.32 -3.2,-53.98 -3.2,-53.98 0,0 18.75,29.512 33.86,15.891 10.8,-9.59 24.55,-31.071 44.87,-31.2 11.89,-0.062 15.89,-18.8 7.12,-31.269 -4.87,-6.934 -16.35,-19.531 -16.35,-19.531 0,0 15.87,7.488 22.55,6.3 51.37,-120.191 -40.98,-170.269 -46.71,-155.14 -1.15,5.07 49.04,31.09 8.69,112.09 -28.24,56.691 -86.13,90.57 -145.98,118.968 -53.86,25.563 -163.096,35.36 -167.022,34.481 -0.105,-1.59 -0.214,-3.168 -0.312,-4.762 14.992,-3.476 29.834,-8.219 45.034,-10.117 18.92,-2.359 66.79,-4.199 63.13,-27.32 -1.84,-11.75 -50.81,-12.051 -68.81,-10.532 -14.1,1.18 -27.831,7.641 -41.549,12.352 -6.036,2.078 -10.735,1.277 -13.555,-4.313 -2.813,-5.57 -13.32,-15.476 -0.254,-21.597 9.922,-4.641 21.328,-6 31.922,-8.781 -11.395,-20.098 -26.727,-27.411 -49.149,-23.758 -3.105,0.519 -9.132,1.687 -10.019,-2.84 -0.891,-4.531 3.23,-8.133 6.016,-9.281 8.796,-3.641 18.183,-5.879 27.234,-8.641 -6.856,-15 -20.301,-20.449 -40.156,-16.551 -3.739,0.731 -10.059,1.61 -12.11,-2.41 -2.058,-4.027 3.868,-9.559 7.266,-11.211 7.441,-3.609 25.273,-7.976 25.273,-7.976 -7,-21.461 -37.175,-12.872 -43.691,-17.981 -6.512,-5.109 10.625,-28.75 61.348,-45.891 43.404,-14.66 76.794,-32.929 105.744,-75.761 28.03,16.929 58.1,18.07 88.95,16.23 31.71,-1.879 62.98,-0.82 86.63,28.442 12.96,-56.121 -63.94,-55.961 -65.01,-61.891 17.26,-6.559 32.69,-2.34 54.17,0.148 -11.16,-16.41 -29.12,-24.468 -47.49,-26.347 -24.07,-2.449 -43.96,9.847 -63.77,21.519 -12.28,7.231 -18.57,7.578 -32.35,0.578 30.45,-16.5 62.16,-93.789 72.28,-104.226 14.85,-15.32 22.27,-14.512 36.74,-1.684 8.77,7.774 14.1,7.422 21.23,-2.207 8.07,-10.89 15.78,-20.543 23.23,-33.449 7.45,-12.91 3.78,-35.32 11.23,-44.562 18.12,-23.911 43.2,-50.711 61.29,-74.649 8.93,-11.832 11.7,-26.242 6.02,-41.141 -2.6,-6.839 -6.23,-10.3 -14.61,-9.55 -27.02,2.379 -33.11,-2.141 -44.11,-26.731 -1.54,-3.449 -8.43,-7.168 -11.99,-6.437 -13.85,2.797 -30.61,6.886 -40.88,11.59 -10.27,4.718 -16.24,9.257 -16.62,13.359 -0.37,4.09 63.54,27.738 47.78,73.039 -9.79,28.18 -35.3,49.949 -49.28,54.41 -5.4,-21.539 -2.73,-47.98 -32.04,-55.539 1.89,11.078 5.26,20.609 4.59,29.84 -0.66,9.41 -5.28,18.551 -10.57,27.289 -2.77,-13.781 -5.14,-27.668 -8.41,-41.34 -3.58,-14.98 -13.76,-23.121 -30.22,-27.441 8.67,22.883 14.84,43.82 -1.61,66.73 -4.5,-32.179 -4.19,-64.918 -44.79,-71.308 2.03,3.597 3.89,7.3 6.11,10.757 15.82,24.403 12.31,47.403 1.47,73.872 -10.77,26.32 -23.28,25.191 -43.07,53.66 -20.55,29.601 -26.68,78.73 -35.027,91.379 -12.024,18.191 -42.774,30.031 -79.746,40.121 -1.418,-8.078 -2.188,-16.629 -3.235,-22.641 17.168,-0.879 83.84,-2.949 81.828,-41.527 -1.066,-20.442 5.067,-39.551 17.74,-55.203 7.08,-8.75 3.68,-22.368 -7.16,-29.77 -14.4,-9.801 -34.037,-2.891 -40.064,13.84 -14.726,40.961 8.399,63.711 4.141,67.84 -53.731,-7.809 -178.063,-90.93 -106.746,-126.438 9.629,-4.793 19.812,-6.961 20.195,-14.191 0.703,-14.07 -60.305,-40.352 -86.106,-53.551 -9.488,-4.867 -19.964,-7.961 -30.277,-10.828 -41.289,-11.449 -76.41,-31.973 -100.351,-69.242 -4.594,-7.168 -12.168,-9 -18.567,-3.66 -12.648,10.543 -22.961,11.773 -33.465,0.8 -8.359,-8.73 -17.07,-9.269 -26.394,-5.578 -11.18,4.438 -22.567,9.36 -32.235,16.367 -9.742,7.063 -7.929,13.532 0.856,22.032 34.801,33.691 80.066,44.23 123.426,59.492 21.047,7.418 41.285,17.367 61.523,26.969 8.438,4 14.352,10.89 11.582,20.968 -11.496,-7.531 -22.101,-17.64 -34.621,-21.82 -12.75,-4.25 -27.687,-5.34 -42.715,4.449 22.024,5.492 41.801,11.274 52.528,32.582 -16.403,-6.492 -31.707,-14.07 -47.84,-18.531 -16.582,-4.598 -39.157,4.383 -44.989,14.891 14.082,1.742 28.602,2.211 42.383,5.679 13.367,3.352 27.805,7.61 31.207,27.52 -29.664,-20.309 -88.836,-31.199 -102.156,9.043 42.52,-15.363 84.418,5.008 93.391,28.578 5.613,14.73 51.629,72.898 176.355,95.16 -2.226,12.399 -4.062,22.762 -6.016,33.692 -84.046,1.679 -134.82,-14.704 -158.484,-40.122 -7.902,-7.621 -12.961,-7.679 -20.625,-1.441 -50.609,41.301 -107.348,70.121 -170.801,84.18 -29.855,6.621 -60.34,10.351 -90.761,3.601 -11.383,-2.531 -22.352,-7.3 -33.235,-11.711 -9.59,-3.898 -16.074,-1.32 -18.742,8.493 -4.969,18.277 -18.953,25.699 -35.965,19.058 -18.289,-7.148 -43.133,-0.18 -55.172,15.481 -7.836,10.179 -6.07,19.058 5.047,25.449 18.535,10.66 39.231,12.371 59.344,10.781 38.43,-3.051 76.637,-9.121 115.008,-13.121 12.73,-1.34 26.031,-2.051 38.496,0.199 27.133,4.922 52.242,-0.179 77.598,-9.609 16.597,-6.192 34.261,-9.488 51.57,-13.559 9.414,-2.23 19.066,-3.422 29.68,-5.25 -9.922,12.348 -21.758,18.918 -36.563,20.149 -17.937,1.519 -19.43,4.269 -11.703,21.082 47.094,109.769 166.664,122.218 203.086,152.679 11.597,9.34 11.086,19.34 17.203,30.969 28.281,-9.57 58.68,-8.949 85.859,12.16 -0.187,1.45 -0.39,2.899 -0.578,4.36 -38.992,-13.258 -50.508,-9.649 -70.504,-2.25 -24.453,9.031 -37.437,4.039 -46.023,-11.11 -16.117,-28.441 -36.707,-44.41 -68.559,-43.871 -36.929,1.813 -31.125,11.93 -17.656,14.11 19.301,3.121 31.789,15.589 40.867,32.293 4.278,7.867 3.278,13.187 -5.433,17.949 -6.422,3.5 -14.09,7.82 -14.844,11.558 -0.75,3.75 3.957,6.68 10.562,6.84 6.606,0.192 46.543,1.403 51.098,1.403 m 125.426,68.518 c -6.524,0.77 -6.692,-10.733 -11.731,-13.69 -5.027,-2.957 -20.215,-2.098 -20.097,11.92 0.031,3.25 2.597,8.24 -1.27,8.86 -6.269,1.01 -22.871,-2.04 -28.308,-3.48 -5.954,-1.59 -21.571,-7.66 -22.489,-13.57 -0.926,-5.906 4.196,-8.402 8.867,-7.933 8.707,0.878 13.622,0.394 19.938,-2.164 7.141,-2.875 16.379,-12.774 28.684,-14.004 15.976,-1.59 37.449,-1.25 45.789,15.859 2.082,4.27 -10.02,17.072 -19.383,18.202"/><path id="path26" style="fill:#231f20;fill-opacity:1;fill-rule:nonzero;stroke:none" d="m 648.16,786.969 c -13.832,-18.168 -26.918,-35.379 -41.226,-54.168 -9.852,9.5 -59.246,58.91 -101.395,80.75 -28.945,15 -53.805,15.597 -81.797,16.57 -8.887,0.328 -18.179,-6.199 -27.008,-10.242 -10.507,-4.801 -17.937,-1.719 -21.394,9.633 -4.817,15.789 -23.613,26.117 -38.531,19.777 -9.977,-4.25 -14.383,-0.289 -17.934,8.082 -5.266,12.449 -11.984,24.488 -15.594,37.43 -5.023,17.949 0.907,23.898 18.789,22.308 69.657,-7.019 169.848,-54.539 184.899,-60.711 2.918,-1.199 6.469,-2.136 9.449,-1.597 33.18,5.929 57.922,-7.742 79.559,-32.34 13.625,-15.492 30.011,-28.481 52.183,-35.492"/><path id="path28" style="fill:#231f20;fill-opacity:1;fill-rule:nonzero;stroke:none" d="m 501.438,156.5 c -1.168,4.281 34.921,55.309 54.207,84.129 13.156,-4.188 24.207,-8.008 35.445,-11.188 12.043,-3.421 14.687,-7.48 9.57,-19.671 -10.457,-24.84 -31.305,-38.418 -54.562,-47.969 -13.047,-5.36 -43.485,-9.571 -44.66,-5.301"/><path id="path30" style="fill:#231f20;fill-opacity:1;fill-rule:nonzero;stroke:none" d="m 264.434,667.199 c 7.789,3.801 12.8,1.461 19.871,-2.59 10.937,-6.277 27.254,-11.98 31.953,-13.089 4.687,-1.098 10.613,-1.051 11.629,-4.051 1.027,-3.02 0.297,-8.008 -1.586,-10.149 -5.473,-6.218 -10.387,-9.961 -16.59,-11.941 -35.496,-11.418 -72.352,0.262 -105.805,13.82 0,0 48.114,21.961 60.528,28"/><path id="path32" style="fill:#231f20;fill-opacity:1;fill-rule:nonzero;stroke:none" d="m 207.59,886 c 0,0 47.144,1.82 64.695,2.75 16.149,0.871 23.582,-2.051 27.399,-17.23 1.359,-5.399 5.328,-10.129 8.144,-15.129 5.586,-9.911 2.5,-18.719 -8.574,-19.93 -9.449,-1.039 -19.578,-0.43 -28.781,1.949 -20.868,5.371 -38.633,16.899 -53.407,32.84 -5.738,6.191 -9.476,14.75 -9.476,14.75"/><path id="path34" style="fill:#231f20;fill-opacity:1;fill-rule:nonzero;stroke:none" d="m 547.77,248.762 c 0,0 -30.723,-49.133 -47.832,-73.09 -3.485,-4.871 -22.469,-6.402 -23.223,-2.723 -0.75,3.692 60.711,90.492 60.711,90.492 l 10.344,-14.679"/><path id="path36" style="fill:#231f20;fill-opacity:1;fill-rule:nonzero;stroke:none" d="m 187.508,668.559 c 27.648,10.351 53.379,19.992 79.418,29.73 5.32,-12.41 4.297,-18.84 -8.473,-22.219 -13.207,-3.48 -26.121,-8.859 -38.433,-14.949 -12.25,-6.043 -21.313,-2.461 -32.512,7.438"/><path id="path38" style="fill:#231f20;fill-opacity:1;fill-rule:nonzero;stroke:none" d="m 215.988,917.68 49.184,-0.121 c 0,0 10.859,0.121 19.144,-3.039 2.86,-1.079 6.864,-5.321 6.864,-8.5 0,-3.168 -5.117,-5.239 -7.692,-5.27 l -59.48,1.02 c -4.211,0.3 -10.399,7.429 -12,10.55 -2.801,5.45 3.98,5.36 3.98,5.36"/><path id="path40" style="fill:#231f20;fill-opacity:1;fill-rule:nonzero;stroke:none" d="m 1163.79,159.262 c -3.44,3.59 30.08,71 32.68,77.41 2.61,6.387 5.34,9.367 12.63,6.719 10.64,-3.879 21.58,-6.95 32.47,-10.11 9.29,-2.722 11.52,-8.922 7.56,-17.043 -10.52,-21.566 -38.05,-41.117 -49.1,-45.539 -11.08,-4.429 -32.83,-15.027 -36.24,-11.437"/><path id="path42" style="fill:#231f20;fill-opacity:1;fill-rule:nonzero;stroke:none" d="m 1137.77,171.559 c -1.87,4.14 36.16,79.679 38.28,81.621 8.78,8.058 15.51,-3.141 12.56,-8.16 -9.57,-22.29 -23.98,-55.2 -30.24,-66.129 -6.27,-10.922 -18.72,-11.481 -20.6,-7.332"/><path id="path44" style="fill:#ed1c24;fill-opacity:1;fill-rule:nonzero;stroke:none" d="m 749.934,939.52 c 0,0 -0.161,1.558 -1.157,3.191 -1.898,3.148 -13.054,4.301 -22.933,1.598 -18.789,-5.137 -36.668,-4.789 -55.168,6.023 -5.649,3.297 -12.262,10.137 -14.117,16.699 -2.832,9.949 0.949,19.59 11.574,25.184 9.715,-25.004 32.933,-23.215 52.758,-26.625 14.746,-2.531 30.074,-1.551 45.14,-2.121 14.824,-0.547 28.403,-3.59 36.856,-22.617 l -52.953,-1.332"/><path id="path46" style="fill:#ed1c24;fill-opacity:1;fill-rule:evenodd;stroke:none" d="m 903.316,585.5 c 0,-7.039 -3.855,-12.75 -8.601,-12.75 -4.758,0 -8.606,5.711 -8.606,12.75 0,11.301 3.848,12.75 8.606,12.75 4.746,0 8.601,-2.68 8.601,-12.75"/><path id="path48" style="fill:#ffffff;fill-opacity:1;fill-rule:nonzero;stroke:none" d="M 1692.82,1968.84 H 9.53906 V 1126.41 H 1692.82 v 842.43"/><path id="path50" style="fill:none;stroke:#231f20;stroke-width:10;stroke-linecap:butt;stroke-linejoin:miter;stroke-miterlimit:10;stroke-dasharray:none;stroke-opacity:1" d="M 1692.82,1968.84 H 9.53906 V 1126.41 H 1692.82 Z"/><path id="path52" style="fill:none;stroke:#231f20;stroke-width:10;stroke-linecap:butt;stroke-linejoin:miter;stroke-miterlimit:10;stroke-dasharray:none;stroke-opacity:1" d="M 1692.82,1126.41 H 850.391 v 842.43 h 842.429 z"/><path id="path54" style="fill:#231f20;fill-opacity:1;fill-rule:nonzero;stroke:none" d="M 429.176,1126.41 H 7.96484 v 842.43 H 429.176 v -842.43"/><path id="path56" style="fill:none;stroke:#231f20;stroke-width:10;stroke-linecap:butt;stroke-linejoin:miter;stroke-miterlimit:10;stroke-dasharray:none;stroke-opacity:1" d="M 429.176,1126.41 H 7.96484 v 842.43 H 429.176 Z"/><path id="path58" style="fill:#fddd04;fill-opacity:1;fill-rule:nonzero;stroke:none" d="m 851.18,1968.05 h 420.43 V 1547.63 H 851.18 v 420.42"/><path id="path60" style="fill:none;stroke:#231f20;stroke-width:10;stroke-linecap:butt;stroke-linejoin:miter;stroke-miterlimit:10;stroke-dasharray:none;stroke-opacity:1" d="m 851.18,1968.05 h 420.43 V 1547.63 H 851.18 Z"/><path id="path62" style="fill:#1c63b7;fill-opacity:1;fill-rule:nonzero;stroke:none" d="m 851.18,1968.05 h 312.66 V 1655.39 H 851.18 v 312.66"/><path id="path64" style="fill:none;stroke:#231f20;stroke-width:10;stroke-linecap:butt;stroke-linejoin:miter;stroke-miterlimit:10;stroke-dasharray:none;stroke-opacity:1" d="m 851.18,1968.05 h 312.66 V 1655.39 H 851.18 Z"/><path id="path66" style="fill:#1c63b7;fill-opacity:1;fill-rule:nonzero;stroke:none" d="m 1692.04,1968.05 v -420.42 h -420.43 v 420.42 h 420.43"/><path id="path68" style="fill:none;stroke:#231f20;stroke-width:10;stroke-linecap:butt;stroke-linejoin:miter;stroke-miterlimit:10;stroke-dasharray:none;stroke-opacity:1" d="m 1692.04,1968.05 v -420.42 h -420.43 v 420.42 z"/><path id="path70" style="fill:#fddd04;fill-opacity:1;fill-rule:nonzero;stroke:none" d="m 1692.04,1968.05 v -312.66 h -312.67 v 312.66 h 312.67"/><path id="path72" style="fill:none;stroke:#231f20;stroke-width:10;stroke-linecap:butt;stroke-linejoin:miter;stroke-miterlimit:10;stroke-dasharray:none;stroke-opacity:1" d="m 1692.04,1968.05 v -312.66 h -312.67 v 312.66 z"/><path id="path74" style="fill:#1c63b7;fill-opacity:1;fill-rule:nonzero;stroke:none" d="m 851.18,1127.2 h 420.43 v 420.43 H 851.18 V 1127.2"/><path id="path76" style="fill:none;stroke:#231f20;stroke-width:10;stroke-linecap:butt;stroke-linejoin:miter;stroke-miterlimit:10;stroke-dasharray:none;stroke-opacity:1" d="m 851.18,1127.2 h 420.43 v 420.43 H 851.18 Z"/><path id="path78" style="fill:#fddd04;fill-opacity:1;fill-rule:nonzero;stroke:none" d="m 851.18,1127.2 h 312.66 v 312.66 H 851.18 V 1127.2"/><path id="path80" style="fill:none;stroke:#231f20;stroke-width:10;stroke-linecap:butt;stroke-linejoin:miter;stroke-miterlimit:10;stroke-dasharray:none;stroke-opacity:1" d="m 851.18,1127.2 h 312.66 v 312.66 H 851.18 Z"/><path id="path82" style="fill:#fddd04;fill-opacity:1;fill-rule:nonzero;stroke:none" d="m 1692.04,1127.2 h -420.43 v 420.43 h 420.43 V 1127.2"/><path id="path84" style="fill:none;stroke:#231f20;stroke-width:10;stroke-linecap:butt;stroke-linejoin:miter;stroke-miterlimit:10;stroke-dasharray:none;stroke-opacity:1" d="m 1692.04,1127.2 h -420.43 v 420.43 h 420.43 z"/><path id="path86" style="fill:#1c63b7;fill-opacity:1;fill-rule:nonzero;stroke:none" d="m 1692.04,1127.2 h -312.67 v 312.66 h 312.67 V 1127.2"/><path id="path88" style="fill:none;stroke:#231f20;stroke-width:10;stroke-linecap:butt;stroke-linejoin:miter;stroke-miterlimit:10;stroke-dasharray:none;stroke-opacity:1" d="m 1692.04,1127.2 h -312.67 v 312.66 h 312.67 z"/><path id="path90" style="fill:#231f20;fill-opacity:1;fill-rule:nonzero;stroke:none" d="M 1700.79,1984.25 H 0 V 850.391 C 0,380.73 380.734,0 850.391,0 1320.06,0 1700.79,380.73 1700.79,850.391 V 1984.25 Z m -35,-35 V 850.391 C 1665.79,400.781 1300.01,35 850.391,35 400.781,35 35,400.781 35,850.391 V 1949.25 h 1630.79"/></g></g></svg>