<?xml version="1.0" encoding="UTF-8"?>
<!-- Created with Inkscape (http://www.inkscape.org/) -->
<svg width="406.32" height="492.57" version="1.1" viewBox="0 0 406.32 492.57" xmlns="http://www.w3.org/2000/svg">
 <defs>
  <clipPath id="clipPath3471">
   <path d="m0 0h305v370h-305z"/>
  </clipPath>
  <clipPath id="clipPath3487">
   <path d="m0 0h305v370h-305z"/>
  </clipPath>
 </defs>
 <g transform="matrix(1.3333 0 0 1.3333 0 1.6981e-5)">
  <g>
   <path d="m152.26 1.145h151.33v222.43c0 79.914-67.703 144.72-151.23 144.72-83.515 0-151.21-64.797-151.21-144.72v-222.43z" fill="#fff"/>
   <g fill="#e8423f">
    <path d="m152.31 1.145h151.28v51.551h-151.28z"/>
    <path d="m152.3 105.28h151.28v52.602h-151.28z"/>
    <path d="m152.3 263.07h145.59c3.695-12.539 5.695-25.816 5.695-39.504v-13.089h-151.29z"/>
    <path d="m269.01 315.69h-116.71v52.601h0.488c46.774-0.148 88.555-20.574 116.22-52.601"/>
   </g>
  </g>
  <g clip-path="url(#clipPath3471)">
   <path d="m152.3 157.89h151.29v-52.598h-151.29zm116.71 157.8h-116.71v52.601h0.488c46.774-0.148 88.555-20.574 116.22-52.601zm-116.71 0h116.7c13.16-15.247 23.102-33.083 28.891-52.618h-145.59zm0-52.618h145.59c3.695-12.539 5.695-25.816 5.695-39.504v-13.089h-151.29zm0-52.593h151.29v-52.59h-151.29zm151.29-157.78v-51.55h-151.29v51.55zm-151.29 52.594h151.29v-52.601h-151.29z" fill="none" stroke="#010202" stroke-width="2.286"/>
  </g>
  <g clip-path="url(#clipPath3487)">
   <path d="m152.26 1.145h151.33v222.43c0 79.914-67.703 144.72-151.23 144.72-83.515 0-151.21-64.797-151.21-144.72v-222.43z" fill="none" stroke="#010202" stroke-width="2.286"/>
  </g>
  <path d="m14.07 56.559c0 15.64 7.469 34.113 28.532 34.636 3.984 0.11 13.964-0.371 20.558-6.8 3.949-3.86 5.953-9.2 5.953-15.86 0-11.191-5.687-16.14-10.457-18.332-5.785-2.621-12.605-2.348-16.566-1.164 1.269-3.289 4.398-8.656 15.242-9 4.348-0.141 10.563 0.965 15.508 7.043 5.93 7.277 11.25 23.25 2.898 57.981l-0.332 1.402h42.848l0.019-1.129c0.532-36.106-6.878-62.211-22.043-77.598-12.707-12.886-27.21-14.285-32.871-14.285-48.718 8e-3 -49.289 42.676-49.289 43.106" fill="#e8423f"/>
  <path d="m63.355 12.32c-25.625 0-37.957 11.707-43.8 21.528-6.547 11.05-6.625 22.234-6.625 22.703 0 16.156 7.761 35.238 29.629 35.797h0.39l0.453 4e-3c6.309 0 26.852-1.711 26.852-23.813 0-15.875-11.262-21.543-21.797-21.543-1.375 0-2.867 0.106-4.293 0.328 1.766-2.797 5.352-5.898 13.203-6.148 0.258-0.012 0.457-0.012 0.653-0.012 3.972 0 9.64 1.195 14.136 6.899 5.629 7.14 10.625 22.781 2.465 56.73l-0.672 2.816h45.422l0.035-2.261c0.532-36.418-6.988-62.801-22.375-78.407-13.004-13.199-27.883-14.621-33.676-14.621m-48.132 44.215c0-1.797 0.965-41.93 48.132-41.93 10.633 0 53.653 5.055 53.801 86.766 0 1.297-8e-3 2.621-0.031 3.949h-40.277c3.019-12.558 4.324-23.023 4.324-31.644-4e-3 -25.344-11.25-34.797-23.145-34.797-0.242 0-0.488 0-0.726 0.016-15.516 0.492-16.567 11.32-17.227 12.16 0.387-0.328 1.114-0.664 2.086-0.961 0.242-0.063 0.5-0.137 0.77-0.199 1.492-0.364 3.414-0.61 5.531-0.61 8.293 0 19.519 3.781 19.519 19.254 0 19.524-17.808 21.527-24.57 21.527-0.289 0-0.547-0.011-0.785-0.011-19.828-0.496-27.398-17.832-27.398-33.504v-0.016z" fill="#010202"/>
  <path d="m67.918 109.68h58.039v8.629h-58.039z" fill="#e8423f" stroke="#010202" stroke-miterlimit="10" stroke-width="2.286"/>
  <path d="m67.918 133.46h58.039v8.633h-58.039z" fill="#e8423f" stroke="#010202" stroke-miterlimit="10" stroke-width="2.286"/>
  <path d="m56.203 121.6h81.465v8.637h-81.465z" fill="#e8423f" stroke="#010202" stroke-miterlimit="10" stroke-width="2.286"/>
  <path d="m76.625 276.35-25.453 29.777 19.687-160.5h51.911l19.898 160.5-25.66-29.582-20.086 63.801z" fill="#e8423f" stroke="#010202" stroke-miterlimit="10" stroke-width="2.286"/>
 </g>
</svg>
