<?xml version="1.0" encoding="UTF-8"?>
<!-- Created with Inkscape (http://www.inkscape.org/) -->
<svg width="406.4" height="492.69" version="1.1" viewBox="0 0 406.4 492.69" xmlns="http://www.w3.org/2000/svg">
 <defs>
  <clipPath id="clipPath5875">
   <path d="m0 0h305v370h-305z"/>
  </clipPath>
  <clipPath id="clipPath5889">
   <path d="m0 0h305v370h-305z"/>
  </clipPath>
  <clipPath id="clipPath5945">
   <path d="m0 0h305v370h-305z"/>
  </clipPath>
  <clipPath id="clipPath5961">
   <path d="m0 0h305v370h-305z"/>
  </clipPath>
  <clipPath id="clipPath5977">
   <path d="m0 0h305v370h-305z"/>
  </clipPath>
 </defs>
 <g transform="matrix(1.3333 0 0 1.3333 0 1.2984e-5)">
  <g>
   <path d="m152.31 1.141h151.36v222.48c0 79.941-67.723 144.75-151.26 144.75-83.555 0-151.27-64.812-151.27-144.75v-222.48z" fill="#fff"/>
   <path d="m1.141 223.62c0 79.941 67.714 144.75 151.27 144.75 55.863 0 104.62-28.98 130.84-72.078l-282.11-293.46z" fill="#16a74e"/>
   <path d="m93.91 139.68c-0.883-0.344-4.558-1.137-5.496 0.468-5.285 9.036 3.379 29.016 11.516 33.012 4.379 2.129 4.433 0.625 4.422 0.137-0.114-5.652-16.247-22.836-10.442-33.617" fill="#e8423f"/>
  </g>
  <path d="m93.91 139.68c-0.883-0.344-4.558-1.137-5.496 0.468-5.285 9.036 3.379 29.016 11.516 33.012 4.379 2.129 4.433 0.625 4.422 0.137-0.114-5.652-16.247-22.836-10.442-33.617z" fill="none" stroke="#010202" stroke-width="2.286"/>
  <path d="m168.52 258.3c-14.445-2.813-36.882 4.289-36.882 4.289s-13.254 5.742-16.055 12.824c-2.816 7.121 0.285 9.996 0.285 9.996s6.758 11.473 2.274 16.426c-8.305 2.066-22-0.105-25.411-4.793-3.527-4.828 2.274-8.016 2.379-11.461 0.219-7.312-5.57-10.488-7.793-9.539-1.394 0.602 2.942 3.469 0.688 6.727-2.633 3.773-6.477-2.168-10.059-3.996-3.578-1.84-7.043 0.859-7.043 0.859s3.606 1.133 4.414 1.883c0.809 0.761 0.926 4.301-0.863 5.25-2.703 1.465-9.625-1.758-13.973 4.582 3.661-1.145 5.137-0.071 5.461 0.187 2.586 1.957-1.601 6.059 4.813 9.481-4.602 0.109-6.125 0.222-7.18 0.527 4.867 0.59 3.399 5.883 6.777 7.266 3.368 1.406 5.997 1.043 6.571 1.574 26.031 22.93 68.812 6.023 71.683 2.902 0.704-0.726-4.574-6.597-5.554-8.633-0.567-1.14 2.011-16.128 5.468-17.406 4.856-5.023 23.2-8.73 23.2-8.73s-1.993-14.989-3.2-20.215" fill="#ffd730"/>
  <path d="m168.52 258.3c-14.445-2.813-36.882 4.289-36.882 4.289s-13.254 5.742-16.055 12.824c-2.816 7.121 0.285 9.996 0.285 9.996s6.758 11.473 2.274 16.426c-8.305 2.066-22-0.105-25.411-4.793-3.527-4.828 2.274-8.016 2.379-11.461 0.219-7.312-5.57-10.488-7.793-9.539-1.394 0.602 2.942 3.469 0.688 6.727-2.633 3.773-6.477-2.168-10.059-3.996-3.578-1.84-7.043 0.859-7.043 0.859s3.606 1.133 4.414 1.883c0.809 0.761 0.926 4.301-0.863 5.25-2.703 1.465-9.625-1.758-13.973 4.582 3.661-1.145 5.137-0.071 5.461 0.187 2.586 1.957-1.601 6.059 4.813 9.481-4.602 0.109-6.125 0.222-7.18 0.527 4.867 0.59 3.399 5.883 6.777 7.266 3.368 1.406 5.997 1.043 6.571 1.574 26.031 22.93 68.812 6.023 71.683 2.902 0.704-0.726-4.574-6.597-5.554-8.633-0.567-1.14 2.011-16.128 5.468-17.406 4.856-5.023 23.2-8.73 23.2-8.73s-1.993-14.989-3.2-20.215" fill="#ffd730"/>
  <path d="m168.52 258.3c-14.445-2.813-36.882 4.289-36.882 4.289s-13.254 5.742-16.055 12.824c-2.816 7.121 0.285 9.996 0.285 9.996s6.758 11.473 2.274 16.426c-8.305 2.066-22-0.105-25.411-4.793-3.527-4.828 2.274-8.016 2.379-11.461 0.219-7.312-5.57-10.488-7.793-9.539-1.394 0.602 2.942 3.469 0.688 6.727-2.633 3.773-6.477-2.168-10.059-3.996-3.578-1.84-7.043 0.859-7.043 0.859s3.606 1.133 4.414 1.883c0.809 0.761 0.926 4.301-0.863 5.25-2.703 1.465-9.625-1.758-13.973 4.582 3.661-1.145 5.137-0.071 5.461 0.187 2.586 1.957-1.601 6.059 4.813 9.481-4.602 0.109-6.125 0.222-7.18 0.527 4.867 0.59 3.399 5.883 6.777 7.266 3.368 1.406 5.997 1.043 6.571 1.574 26.031 22.93 68.812 6.023 71.683 2.902 0.704-0.726-4.574-6.597-5.554-8.633-0.567-1.14 2.011-16.128 5.468-17.406 4.856-5.023 23.2-8.73 23.2-8.73s-1.993-14.989-3.2-20.215z" fill="none" stroke="#010202" stroke-miterlimit="17" stroke-width="2.286"/>
  <path d="m83.324 283.08s-4 10.887 0.934 17.883c4.93 6.996 10.008 6.223 14.16 19.336m-25.676-32.696s-0.562 2.336 3.586 4.61c-1.527 1.992-1.832 14.426 1.082 18.187" fill="none" stroke="#010202" stroke-width="2.286"/>
  <path d="m129.88 209.15c0-0.05 0-0.121-8e-3 -0.234 0 0.012-4e-3 0.035-4e-3 0.047 4e-3 0.066 0.012 0.137 0.012 0.187 0.015 0.137 0.015 0.137 0 0m110.47 58.614c-8.609-12.68-26.66-22.453-36-25.817-11.292-8.554-13.625-8.578-17.023-10.992 1.641-11.086-7.621-24.527-7.621-24.527s-4.336-4.934-13.883-4.981c2.508 1.969 12.668 10.067 10.027 12.024-11.539-20.121-28.261-13.43-28.261-13.43s6.875 1.289 8.738 5.379c1.891 4.101 8.922 19.758 16.547 27.023 2.43 2.332 7.387 6.035 13.734 8.285 15.586 5.52 37.914 19.184 42.614 25.29 2.457 3.175 4.031 7.558 3.957 9.14-0.082 1.57-1.723 3.024-4.047 2.719-2.926-0.375-37.867-22.945-37.867-22.945s-7.536-5.45-22.829-9.211c-10.011-13.559-39.355-27.434-45.562-32.532-0.043 0.059-0.09 0.118-0.125 0.164 3.273-3.937 5.762-8.191 7.531-11.953-0.492 4.008-0.449 6.633-0.41 7.512 0.066-1.43 15.258-16.828 12.379-23.891 11-4.351 9.601-5.593 9.09-9.812-0.387 0.148-1.219 0.098-2.242 0 0.73 0.051 1.48 0.062 2.242 0-0.016-5.629-13.821-8.578-13.434-9.328 0.379-0.738 4.469 1.078 5.332 0.293 0.313-0.321-17.316-21.235-21.316-20.668-1.547 0.488-2.367 1.906-4.094 0.933-1.738-0.972-5.855-5.113-7.449-5.375 0.101 0.586-1.867 2.11-1.867 2.11s-2.352 0.812-4.254 2.164c-1.907 1.363-1.778 5.98 0.109 7.867 0.102 0.098-1.598 4.969-1.598 4.969s2.95-3.973 3.481-3.973c0.516 0 5.973 3.445 6.191 6.668 0.41 5.824-9.609 14.703-9.98 14.766-2.063 0.316-5.988-7.09-6.969-7.594-0.379-0.188-1.922-1.641-3.961 5.836-0.148 0.574 0.43 1.84 1.442 3.48v-0.011s-8.184-5.696-16.344-6.399c1.375 0.086 2.621 0.309 3.562 0.602-2.836-5.942-8.515-28.758-5.785-40.946 18.445-6.98 16.531-9.898 16.332-13.402 2.754-3.441-1.515-7.582-1.515-7.582l-1.641 4.637s-1.863 1.254-4.168-0.383c-2.305-1.625-0.816-7.824-1.793-11.328-0.988-3.481-4.941-7.078-4.941-7.078s0.906 2.781 1.074 3.609c0.152 0.832-0.371 2.449-3.621 2.274-3.246-0.172-3.129-3.582-4.93-5.204-1.82-1.636-5.48-2.543-5.48-2.543s2.453 5.333 1.871 6.129c-1.657 0.172-3.75 4.946-5.082 5.36-1.321 0.39-5.215-5.703-8.274-1.61 3.778-0.433 4.129 1.629 4.199 2.336 0.235 2.61-6.121 12.602-1.128 15.578-4.805 11.114 0.125 17.754 0.125 17.754s-3.704 18.481-4.141 40.067c0.566 0.41 0.996 0.902 1.34 1.406-11.52-9.973-18.629-40.609-18-44.387 0.328-1.957 0.785-2.695 0.785-2.695s1.473 0.211 2.988-0.203c1.535-0.406 2-0.797 2-0.797s4.36-0.395 5.512-0.762c1.141-0.363 5.324-8.332 3.121-13.676-0.613 1.317-1.426 4.379-3.207 4.821-1.781 0.457-1.574-1.207-4.379-2.36 0.871-8.332-7.242-17.277-7.242-17.277s2.726 5.566 0.922 6.566c-1.797 1.008-4.883 1.946-4.883 1.946l-0.938 9.644c0.141-2.004 0.293-4.992 0.293-8.929-1.097-2.508-3.449-6.754-6.546-10.278 1.441 2.301 3.164 6.332-0.497 11.567 0.129 0.355 0.391 1.129 2.551 5.84-2.457-4.317-11.328-9.86-11.328-9.86s2.231 8.485-2.215 13.34c3.153 1.391 0.926 29.297 8.836 30.723 2.012 4.172 4.242 54.199 14.735 67.488 1.316 0.086 11.695-0.059 11.695-0.059l-1.988 0.489s13.48 15 18.425 18.75c6.801 5.207 35.914 9.953 55.825 11.957 19.914 2.015 29.761 9.269 30.406 8.273 0.375-0.801-4.602-6.551-3.61-6.832 2.106-0.586 11.192 28.828 19.372 35.719 8.191 6.926 27.96 9.68 29.179 16.219 0.985 5.121-2.074 18.808-10.136 17.753-1.204-0.175-4.735-12.949-6.762-13.898-2.043-0.937-7.449-2.062-12.246 0.609 0.808 0.247 5.73 1.395 7.652 1.844 1.664 1.711-1.207 5.129-2.207 5.496-2.273 0.797-4.07 0.258-5.852 0.629-4.847 1.043-7.812 7.711-7.812 7.711s8.812 0.27 9.187 5.016c4.747-2.66 6.247-4.746 9.551-2.742-10.715 2.437-11.566 5.05-13.375 12.601 4.035-2.168 6.438-3.914 7.633-3.121 1.172 0.809 2.602 1.758 4.43 1.055 0.316-0.117 0.726-0.293 1.191-0.516-0.898 0.59-1.625 1.149-1.805 1.524-0.593 1.265-0.886 7.363-0.125 8.132 0.36-0.785 1.219-3.808 3.235-3.867 2.008-0.094 9.039 1.477 10.019 0 0.973-1.488-0.726 0.117 1.407-2.363 2.132-2.43 11.566-6.133 13.711-7.656 2.496-5.039 22.746-24.235 21.843-37.899-12.843-2.402-12.375-5.215-13.879-7.441-8.832-2.039-22.531-25.125-24.902-28.688 3.457 3.633 34.992 23.852 42.938 26.18 9.636 2.812 19.769-7.309 12.21-18.445m-94.773-92.907c-2.035-0.121-4.129-0.093-5.477 0.68 1.59-0.898 3.469-0.867 5.477-0.68m-40.359 50.321c0.66-0.188 1.328-0.399 1.984-0.621-0.656 0.222-1.32 0.433-1.984 0.621" fill="#ffd730"/>
  <path d="m55.57 139.23c4.809-0.738 9.618-7.277 14.891-15.55 5.277-8.286 11.078-10.161 12.668-9.961m-27.887 7.422s10.27-10.879 17.485-13c-2.747-7.426 0.382-6.95 0.382-6.95m-31.613 19.606s-6.476 6.679-6.805 14.359m132.22 183.1c6.364 0.691 17.543 8.215 15.832 3m-16.16-179.07c-0.598 1.828-0.551 2.066 2.551 5.238-5.633 10.945-1.59 18.961-1.59 18.961" fill="none" stroke="#010202" stroke-width="2.286"/>
  <path d="m139.12 265.14s11.477 5.777 15.637 5.621c-0.746-2.059-2.981-6.547-2.981-6.547s-4.414-2.524-12.656 0.926" fill="#e8423f"/>
  <path d="m139.12 265.14s11.477 5.777 15.637 5.621c-0.746-2.059-2.981-6.547-2.981-6.547s-4.414-2.524-12.656 0.926z" fill="none" stroke="#010202" stroke-width="2.286"/>
  <path d="m244.78 146.38c-1.64-0.887-18.332-3.68-26.636-2.375-8.309 1.289-9.797 9.574-10.348 13.375-0.516 3.773 0.609 9.641-11.285 7.484-5.055-0.91-11.485-7.203-11.438-10.449 0.071-4.488 5.578-6.308 5.731-9.812 0.047-1.055 0.105-9.774-6.613-9.774-0.575 1.856 2.472 6.785-1.637 7.231-3.949 0.422-7.254-5.262-10.664-7.403-2.59-1.648-6.059-0.492-6.059-0.492l4.524 2.863s-0.106 3.844-1.782 4.735c-3.199 1.683-9.738-3.824-15.715 2.73 3.879-0.492 5 0.586 6.067 0.832 1.152 2.86-1.438 7.981 3.098 9.961-0.938-0.121-7.352-0.566-7.231-0.343 3.84 1.292 3.211 4.71 3.211 4.71s1.477 4.684 8.422 5.594c10.926 14.914 40.328 26.516 59.57 25.496-0.258-15.281 4.719-19.57 13.805-21.105 0.726-3.465 4.824-22.531 4.98-23.258" fill="#ffd730"/>
  <path d="m93.047 39.898c-0.192 0.739-2.359 7.961 1.914 15.2 0.078-0.203-0.043-1.356-0.043-1.356s2.68-1.89 3.738-4.015c0.504-0.989 4.117-2.395 6.137-4.875 2.074-3.071 0.422-9.633-3.609-13.196 0.234 3.125 1.023 4.996 0.492 5.555-2.156 2.336-8.438 1.957-8.629 2.687" fill="#ffd730"/>
  <path d="m93.047 39.898c-0.192 0.739-2.359 7.961 1.914 15.2 0.078-0.203-0.043-1.356-0.043-1.356s2.68-1.89 3.738-4.015c0.504-0.989 4.117-2.395 6.137-4.875 2.074-3.071 0.422-9.633-3.609-13.196 0.234 3.125 1.023 4.996 0.492 5.555-2.156 2.336-8.438 1.957-8.629 2.687z" fill="none" stroke="#010202" stroke-width="2.286"/>
  <path d="m183.12 20.641c-0.949-0.125-4.801-8e-3 -5.328 1.953-3.047 11.07 10.465 30.195 19.523 32.312 4.887 1.129 4.567-0.515 4.442-1.008-1.5-6.039-21.727-20.179-18.637-33.257" fill="#e8423f"/>
  <path d="m244.78 146.38c-1.64-0.887-18.332-3.68-26.636-2.375-8.309 1.289-9.797 9.574-10.348 13.375-0.516 3.773 0.609 9.641-11.285 7.484-5.055-0.91-11.485-7.203-11.438-10.449 0.071-4.488 5.578-6.308 5.731-9.812 0.047-1.055 0.105-9.774-6.613-9.774-0.575 1.856 2.472 6.785-1.637 7.231-3.949 0.422-7.254-5.262-10.664-7.403-2.59-1.648-6.059-0.492-6.059-0.492l4.524 2.863s-0.106 3.844-1.782 4.735c-3.199 1.683-9.738-3.824-15.715 2.73 3.879-0.492 5 0.586 6.067 0.832 1.152 2.86-1.438 7.981 3.098 9.961-0.938-0.121-7.352-0.566-7.231-0.343 3.84 1.292 3.211 4.71 3.211 4.71s1.477 4.684 8.422 5.594c10.926 14.914 40.328 26.516 59.57 25.496-0.258-15.281 4.719-19.57 13.805-21.105 0.726-3.465 4.824-22.531 4.98-23.258zm-61.656-125.73c-0.949-0.125-4.801-8e-3 -5.328 1.953-3.047 11.07 10.465 30.195 19.523 32.312 4.887 1.129 4.567-0.515 4.442-1.008-1.5-6.039-21.727-20.179-18.637-33.257z" fill="none" stroke="#010202" stroke-width="2.286"/>
  <g clip-path="url(#clipPath5875)">
   <path d="m299.74 158.39c-0.644-6.199-7.207-22.465-23.203-46.84-11.297-17.199-12.234-26.02-10.137-33.578 10.383-1.508 24.059-15.524 23.684-24.008-0.387-8.5-5.543-12.82-5.543-12.82s-2.93 18.336-6.726 17.293c1.3-1.879 5.261-7.758 5.32-16.051 0.07-8.281-11.707-15.621-13.348-15.731 1.09 1.504 5.664 6.274 4.5 9.957-1.183 3.672-4.265 7.891-8.461 13.411-4.254 5.566-9.761 14.75-10.418 23.531-0.668 8.703 4.137 19.105 6.305 25.387 2.32 6.66 18.07 32.078 18.07 32.078s18.813 28.312 12.446 33.539c-1.934 1.597-10.133 1.117-14.719-5.25-4.301-5.953-3.727-5.707-7.414-11.215-5.227-7.828-8.496-7.254-8.707-8.199-16.844-28.219-40.364-43.907-43.832-45.961 0 0 5.437-5.297 7.097-11.172-0.113 2.058-0.527 7.301-0.527 7.301s15.156-16.977 13.41-25.825c19.602-1.757 12.383-11.109 10.735-12.043 0.113-1.117-11.204-5.933-11.204-6.988 0 0 0.258-0.156 0.633-0.312 3.715 1.109 4.617 0.894 4.559 0.312-0.047-0.574-15.445-17.933-21.856-19.172-2.144 1.496-2.507 0.637-3.89 0.903-2.129 0.336-7.379-6.551-10.02-6.707-0.269 1.054-2.719 2.312-2.719 2.312s-5.308 1.598-6.363 3.551c-1.066 1.953 0.903 6.578 0.903 6.578l-0.86 4.379s2.828-3.484 2.977-3.754c1.429 2.125 6 1.895 7.105 7.992 1.113 6.09-3.551 8.102-5.347 11.758-1.817 3.645-3.676 2.332-5.211 2.07-2.278-0.402-7.598-5.726-7.797-5.726-2.399 0-3.676 6.25-3.629 7.097 0.691-0.257 0.996 2.274 1.687 2.614 0.305 0.144 0.75 0.422 1.242 0.75-8.261-5.504-21.843-4.129-21.75-3.723 0.106 0.387 3.723 1.844 3.504 2.766-0.152 0.652-6.445-0.946-14.894 2.027 0.094-0.035 0.18-0.074 0.269-0.109 0 0-15.004-15.528-10.996-26.594 5.063-1.145 9.071-0.695 12.071-1.86 4.996-1.937 7.351-7.777 7.277-10.523-4.883 5.293-6.352 3.938-7.164 3.582-3.012-1.363 0.289-9.125 0-11.914-0.274-2.785-3.942-6.078-3.942-6.078s1.137 4.125-4.882 6.078c-2.84 0.91-5.18-3.254-7.16-5.004-1.997-1.734-5.747-2.023-5.747-2.023s3.004 4.531 2.157 5.722c-1.965 0.043-3.746 3.219-6.344 3.805-2.602 0.594-5.117-5.242-9.547-1.43 3.313-0.316 3.598 0.637 3.938 1.192 1.546 2.511-0.844 3.273-1.879 13.117-0.469 4.289-0.078 8.828 0.379 12.551 1.023 8.453 7.347 18.054 10.933 37.578 0.016 0.012 0.051 0.027 0.094 0.039-13.297-5.438-28.137-9.188-35.84-16.871-8.012-7.992-6.934-20.371-5.898-22.235 0-0.656-5.371-8.753-15.555-10.003 5.363 4.355 4.676 2.988 0.738 9.253 2.625 2.914 4.043 5.797 4.805 7.864-0.75-1.559-2.125-3.742-4.707-6.742-2.727-0.848-7.141-1.008-12.824 0.484 7.574 1.297 6.113 9.957 6.113 9.957s1.949 1.305 5.812 3.297c-4.23-1.805-17.074 0.883-17.074 0.883s10.387 0.886 9.449 7.332c5.235 3.453 11.332 10.457 14.063 11.937 1.043 0.625 0.559 1.141 5.809 2.25 19.011 22.906 49.371 41.332 52.746 42.61 3.839-0.833 10.589-0.551 10.589-0.551s-2.82 0.367-5.718 0.687c5.054 6.59 22.824 7.809 45.804 10.528 30.832 3.628 43.008 20.824 44.789 21.105 0.551-1.488-1.031-2.344-1.23-7.758 5.156 8.496-0.926 33.727 8.262 43.172 8.812 9.063 21.269 16.906 24.433 21.195 0.996 1.332 2.262 4.122 1.594 11.868-0.281 3.562-2.906 5.519-5.473 10.078-1.652 0.82-3.785 1.008-6.515 0.023-15.797-5.672-20.52 2.613-20.52 2.613s9.574-1.031 9.281 4.571c0.809-0.149 1.747-0.219 2.719-0.246-2.25 0.8-4.441 2.66-5.812 6.519 4.125-2.347 7.863 2.422 9.668 4.817 1.793 2.41 3.867 0.347 3.867 0.347s4.922-5.718 9.023-5.789c-0.445 0.258-12.445 3.246-9.34 16.387 1.594-8.301 11.133-1.934 13.536-5.149 0.14-0.589-0.059-2.378 1.3-4.171 1.313-1.793 9-4.5 9-4.5s7.629-12.399 8.051-19.614c0.125-1.98 1.91-11.84 2.074-29.207-13.078-1.136-13.734-9.828-14.945-19.281-0.84-6.504-2.941-11.18-4.199-13.477 2.476 3.833 9.629 13.043 20.305 10.583 7.312-1.715 7.414-9.254 6.761-15.426m-109.69-97.344c-0.192-0.188-0.426-0.359-0.637-0.531 0.223 0.183 0.445 0.359 0.637 0.531m-0.918-0.746c-0.211-0.141-0.422-0.297-0.641-0.449 0.219 0.16 0.43 0.308 0.641 0.449" fill="#ffd730"/>
  </g>
  <g clip-path="url(#clipPath5889)">
   <path d="m217.54 93.934c3.469 2.054 26.988 17.742 43.836 45.961 0.203 0.945 3.48 0.378 8.699 8.203 3.692 5.507 3.125 5.261 7.418 11.211 4.582 6.367 12.785 6.847 14.719 5.25 6.363-5.227-12.442-33.539-12.442-33.539s-15.738-25.418-18.066-32.075c-2.16-6.289-6.965-16.687-6.305-25.386 0.653-8.786 6.161-17.965 10.414-23.532 4.196-5.519 7.282-9.738 8.461-13.41 1.172-3.683-3.406-8.453-4.5-9.961 1.641 0.11 13.418 7.449 13.352 15.735-0.063 8.289-4.02 14.164-5.324 16.047 3.8 1.046 6.726-17.29 6.726-17.29s5.157 4.317 5.543 12.821c0.379 8.484-13.301 22.5-23.679 24.008-2.102 7.558-1.153 16.375 10.132 33.574 15.996 24.379 22.559 40.637 23.203 46.844 0.657 6.171 0.563 13.707-6.773 15.406-13.394 3.097-21.258-12.211-21.258-12.211s3.938 5.637 5.156 15.109c1.219 9.457 1.875 18.153 14.954 19.278-0.164 17.378-1.957 27.234-2.075 29.214-0.421 7.207-8.058 19.606-8.058 19.606s-7.68 2.707-9 4.5c-1.363 1.793-1.153 3.59-1.301 4.172-2.395 3.222-11.941-3.141-13.539 5.156-3.106-13.148 8.894-16.137 9.344-16.395-4.106 0.071-9.024 5.79-9.024 5.79s-2.078 2.074-3.871-0.34c-1.805-2.391-5.543-7.16-9.664-4.817 3.75-10.664 13.871-6.093 13.871-6.093s-6.84-0.891-10.777-0.176c0.301-5.602-9.281-4.571-9.281-4.571s4.722-8.285 20.519-2.617c2.731 0.985 4.871 0.797 6.524-0.023 2.566-4.567 5.183-6.524 5.464-10.086 0.668-7.746-0.601-10.535-1.593-11.859-3.164-4.29-15.625-12.141-24.434-21.196-9.18-9.445-3.109-34.676-8.262-43.172 0.2 5.414 1.782 6.27 1.231 7.758-1.781-0.281-13.957-17.473-44.793-21.109-22.977-2.715-40.75-3.934-45.801-10.524 2.895-0.332 5.719-0.687 5.719-0.687s-6.75-0.285-10.594 0.551c-3.371-1.278-33.73-19.707-52.742-42.61-5.25-1.109-4.766-1.625-5.809-2.25-2.73-1.48-8.828-8.484-14.066-11.937 0.937-6.438-9.449-7.332-9.449-7.332s14.05-2.946 17.609-0.617c-4.211-2.137-6.344-3.571-6.344-3.571s1.461-8.66-6.117-9.953c5.684-1.496 10.102-1.332 12.828-0.488 6.192 7.191 5.539 9.797 5.539 9.797s-0.668-5.399-5.633-10.91c3.942-6.266 4.625-4.899-0.738-9.254 10.188 1.25 15.555 9.347 15.555 10.004-1.035 1.871-2.109 14.242 5.898 22.234 10.953 10.918 36.344 13.867 51.145 25.121 9.859 7.508 8.43 19.348-1.473 20.32 4.18 3.891 21.903 3.035 21.903 3.035s-3.383 3.172-4.5 4.215c1.511 1.117 21 3.739 33.179-10.371-1.695 3.832-2.726 5.789-2.726 5.789s4.965 0.746 21.07-16.347z" fill="none" stroke="#010202" stroke-miterlimit="16" stroke-width="2.286"/>
  </g>
  <path d="m148.63 107.61c4.18 3.891 21.906 3.032 21.906 3.032s-3.387 3.172-4.5 4.214c1.512 1.118 20.988 3.739 33.176-10.371-1.699 3.832-2.731 5.789-2.731 5.789s4.957 0.75 21.071-16.343c0 0 5.437-5.297 7.097-11.172-0.113 2.058-0.527 7.301-0.527 7.301s15.156-16.977 13.41-25.825c19.602-1.757 12.383-11.109 10.735-12.043-0.516-0.101-5.579 0-9.895-0.203-4.344-0.203-5.672 4.129-5.672 4.129s-2.988 7.09-9.515 15.629c-9.653 12.719-25.157-3.816-33.125-10.703-7.938-6.883-23.418-5.359-23.321-4.926 0.113 0.391 3.723 1.848 3.504 2.766-0.211 0.922-12.691-2.672-26.203 8.543 0.609 0 6.93-0.082 6.695 1.633-0.097 0.828-8.746 1.859-11.652 11.851 0.621 0.195 7.781 3.918 11.027 6.379 9.844 7.504 8.426 19.344-1.48 20.32" fill="none" stroke="#010202" stroke-miterlimit="9" stroke-width="2.286"/>
  <path d="m139.08 80.91c2.906-9.992 11.563-11.023 11.652-11.851 0.235-1.719-6.089-1.633-6.695-1.633 4.055-3.36 8.02-5.387 11.582-6.625 0 0-15.008-15.528-11-26.59 5.063-1.145 9.071-0.695 12.071-1.859 5-1.938 7.359-7.778 7.277-10.524-4.875 5.293-6.352 3.938-7.164 3.582-3.012-1.363 0.285-9.125 0-11.918-0.274-2.785-3.942-6.078-3.942-6.078s1.137 4.129-4.882 6.078c-2.84 0.914-5.18-3.25-7.161-5.004-1.996-1.734-5.746-2.023-5.746-2.023s3.004 4.531 2.157 5.726c-1.965 0.043-3.747 3.215-6.344 3.805-2.598 0.59-5.117-5.242-9.547-1.43 3.312-0.316 3.602 0.637 3.937 1.192 1.547 2.512-0.839 3.273-1.878 13.113-0.469 4.289-0.079 8.832 0.378 12.551 1.024 8.457 7.352 18.055 10.938 37.578 0.437 0.262 4.367 1.91 4.367 1.91z" fill="none" stroke="#010202" stroke-width="2.286"/>
  <path d="m248.27 52.199c-0.012 0.211-5.582 0-9.903-0.203-4.336-0.203-5.672 4.129-5.672 4.129s-2.988 7.09-9.515 15.629c-9.657 12.719-25.16-3.816-33.117-10.703-0.86-0.75-2.157-1.633-2.813-1.953-0.691-0.34-0.996-2.871-1.687-2.614-0.059-0.847 1.218-7.097 3.621-7.097 0.199 0 5.519 5.324 7.793 5.726 1.535 0.262 3.398 1.578 5.214-2.066 1.793-3.66 6.457-5.672 5.344-11.762-1.105-6.09-5.676-5.867-7.105-7.992-0.149 0.27-2.981 3.758-2.981 3.758l0.864-4.383s-1.969-4.625-0.903-6.578c1.055-1.953 6.363-3.547 6.363-3.547s2.45-1.262 2.719-2.316c2.637 0.156 7.887 7.043 10.02 6.707 1.383-0.266 1.746 0.593 3.89-0.899 6.411 1.235 21.809 18.598 21.856 19.168 0.058 0.59-0.844 0.801-4.559-0.312-0.375 0.152-0.633 0.312-0.633 0.312-0.011 1.063 11.305 5.879 11.204 6.996z" fill="none" stroke="#010202" stroke-miterlimit="5" stroke-width="2.286"/>
  <path d="m217.89 31.297c0.859 0.105 8.875 2.164 10.289 11.543-0.317 0.515-10.289-1.547-10.289-4.52 0-3.347 3.437-4.074 0-7.023" fill="#010202"/>
  <path d="m222.52 149.68c6.247-0.035 13.758 0.258 15.61 3.304 0.035 1.266 0.469 4.114 0.68 6.125-3.083-0.437-16.29-8.734-16.29-9.429" fill="#e8423f"/>
  <path d="m53.828 183.42s0.871-4.453 9.723-3.504c0.922-1.648-5.668-2.953-5.563-3.457 0.129-0.516 9.52-4.449 15.95-2.988-1.36-1.031-2.329-1.461-4.172-1.625 3.246-1.336 7.937-1.055 10.422-0.293-2.836-5.942-8.512-28.758-5.782-40.946 18.446-6.98 16.528-9.898 16.332-13.402 2.754-3.441-1.515-7.582-1.515-7.582l-1.645 4.637s-1.863 1.254-4.168-0.383c-2.301-1.625-0.812-7.824-1.793-11.328-0.984-3.481-4.937-7.078-4.937-7.078s0.902 2.781 1.074 3.609c0.148 0.832-0.371 2.449-3.625 2.274-3.246-0.172-3.125-3.582-4.926-5.204-1.824-1.636-5.484-2.543-5.484-2.543s2.453 5.333 1.871 6.129c-1.656 0.172-3.75 4.946-5.082 5.36-1.32 0.39-5.215-5.703-8.274-1.61 3.782-0.433 4.129 1.629 4.2 2.336 0.234 2.61-6.118 12.602-1.129 15.578-4.801 11.114 0.129 17.754 0.129 17.754s-3.707 18.481-4.141 40.067c2.043 1.488 2.535 4.199 2.535 4.199zm92.215-170.15c0.445 1.89-3.898 3.429-5.891 7.265-8.941 2.239-15.082 9.407-16.879 14.102m2.602 14.668c1.703-0.848 12.43-22.844 21.566-26.832 4.957-2.16 4.563 0.492 8.239-1.891m66.843 129.1c6.247-0.035 13.758 0.258 15.61 3.304 0.035 1.266 0.469 4.114 0.68 6.125-3.083-0.437-16.29-8.734-16.29-9.429z" fill="none" stroke="#010202" stroke-width="2.286"/>
  <path d="m102.77 158.17s2.945-3.973 3.48-3.973c0.52 0 5.973 3.446 6.192 6.664 0.41 5.828-9.606 14.707-9.977 14.77-2.063 0.316-5.992-7.094-6.973-7.598-0.375-0.187-1.922-1.637-3.961 5.84-0.609 2.273 10.395 15.68 14.719 19.465 14.246 12.48 26.43-6.668 27.902-8.145 4.29-4.254 3.075-8.039 5.954-9.652 3.058-1.738 7.156-0.023 11.23-0.332-0.012-5.629-13.82-8.578-13.434-9.328 0.375-0.738 4.469 1.078 5.332 0.293 0.313-0.321-17.316-21.235-21.316-20.668-1.547 0.488-2.367 1.906-4.094 0.933-1.742-0.972-5.855-5.113-7.449-5.375 0.102 0.586-1.867 2.11-1.867 2.11s-2.352 0.812-4.254 2.164c-1.91 1.363-1.777 5.98 0.109 7.867 0.098 0.09-1.593 4.965-1.593 4.965z" fill="none" stroke="#010202" stroke-miterlimit="17" stroke-width="2.286"/>
  <path d="m92.973 177.35c3.027 4.91 10.031 13.156 13.273 15.992 14.246 12.48 26.43-6.664 27.902-8.141 4.29-4.254 3.075-8.039 5.954-9.652 3.058-1.734 9.824 0.211 11.23-0.332 0.508 4.219 1.91 5.461-9.09 9.812 2.899 7.106-12.508 22.661-12.379 23.938 0.133 1.285-0.316-1.68 0.414-7.559-4.144 8.719-11.933 20.129-25.062 23.778 0.344-0.672 1.422-2.629 2.605-5.594-18 17.547-36.207 11.133-36.207 11.133s1.27-1.09 4.512-3.844c-11.965-0.574-17.145-2.086-28.203-11.016 6.848-0.949 9.937-7.675 10.711-14.015 0.785-6.328-2.168-7.325-3.692-10.817-1.546-3.504-1.117-7.625-1.117-7.625s0.871-4.453 9.723-3.504c0.918-1.648-5.672-2.953-5.563-3.457 0.129-0.515 9.516-4.449 15.95-2.988-1.36-1.031-3.024-1.816-4.875-1.965 9.613-3.953 23.914 5.856 23.914 5.856z" fill="none" stroke="#010202" stroke-miterlimit="7" stroke-width="2.286"/>
  <path d="m122.89 213.19c-4.129 4.875-10.129 9.891-17.657 11.989 0.34-0.68 1.418-2.625 2.602-5.59-18 17.543-36.211 11.125-36.211 11.125s1.274-1.09 4.512-3.844c-11.961-0.578-17.141-2.09-28.199-11.019 6.847-0.946 9.937-7.672 10.711-14.016 0.785-6.328-2.165-7.324-3.692-10.816-1.547-3.504-1.117-7.618-1.117-7.618s-0.137-1.711-1.203-2.804c-11.52-9.969-18.629-40.606-18-44.387 0.328-1.953 0.785-2.695 0.785-2.695s1.473 0.211 2.988-0.2c1.535-0.406 1.996-0.796 1.996-0.796s4.364-0.395 5.516-0.762c1.141-0.367 5.324-8.336 3.121-13.676-0.613 1.316-1.426 4.375-3.207 4.82-1.781 0.453-1.574-1.207-4.379-2.359 0.871-8.332-7.242-17.277-7.242-17.277s2.727 5.566 0.922 6.566c-1.797 1.008-4.887 1.945-4.887 1.945l-1.269 12.727s0.609-4.09 0.609-12c-1.094-2.508-3.449-6.754-6.547-10.277 0.836 2.55 3.164 6.328-0.496 11.566 0.137 0.367 0.418 1.219 3.012 6.848-1.426-4.391-11.789-10.868-11.789-10.868s2.234 8.489-2.215 13.336c3.148 1.395 0.926 29.301 8.84 30.727 2.007 4.176 4.242 54.199 14.73 67.488 1.317 0.086 11.699-0.058 11.699-0.058l-1.992 0.492s13.481 15 18.426 18.75c6.805 5.203 35.914 9.949 55.824 11.953 19.914 2.016 29.758 9.269 30.41 8.273 0.371-0.796-1.371-5.179-3.613-6.832 3.121 0.094 11.191 28.828 19.371 35.719 8.192 6.926 27.961 9.68 29.18 16.219 0.984 5.121-2.074 18.808-10.137 17.754-1.207-0.176-4.734-12.949-6.762-13.899-2.039-0.937-7.453-2.062-12.246 0.61 0.809 0.246 5.731 1.394 7.653 1.843 1.664 1.707-1.207 5.129-2.204 5.497-2.273 0.796-4.074 0.257-5.855 0.628-4.844 1.043-7.809 7.711-7.809 7.711s8.813 0.27 9.188 5.016c4.746-2.66 6.246-4.746 9.551-2.742-10.723 2.437-11.567 5.051-13.379 12.597 4.031-2.164 6.441-3.91 7.637-3.117 1.171 0.809 2.601 1.758 4.429 1.055 1.817-0.672 6.203-3.383 6.203-3.383s-6.218 3.149-6.82 4.391c-0.594 1.265-0.887 7.363-0.125 8.133 0.359-0.786 1.219-3.809 3.238-3.868 2.004-0.097 9.035 1.477 10.016 0 0.973-1.488-0.727 0.118 1.406-2.359 2.137-2.434 11.567-6.137 13.711-7.66 2.496-5.039 22.746-24.234 21.844-37.899-12.844-2.402-12.375-5.214-13.887-7.441-9.34-2.168-24-27.422-25.223-29.144 0 1.64 34.868 24.152 43.266 26.636 9.637 2.824 19.781-7.301 12.215-18.433-8.602-12.68-26.652-22.453-36-25.817-11.285-8.554-13.621-8.578-17.016-10.992 1.641-11.086-7.621-24.527-7.621-24.527s-4.336-4.934-13.883-4.981c2.508 1.969 12.668 10.067 10.02 12.024-11.52-20.121-28.242-13.43-28.242-13.43s6.879 1.289 8.738 5.379c1.891 4.101 8.922 19.758 16.547 27.023 2.43 2.332 7.387 6.035 13.734 8.285 15.586 5.52 37.914 19.184 42.614 25.29 2.457 3.175 4.031 7.558 3.957 9.14-0.082 1.57-1.723 3.024-4.043 2.719-2.93-0.375-37.871-22.945-37.871-22.945s-7.536-5.45-22.829-9.211c-10.011-13.555-39.343-27.434-45.554-32.532z" fill="none" stroke="#010202" stroke-miterlimit="10" stroke-width="2.286"/>
  <path d="m121.15 152.06c8.543 2.242 10.09 11.113 10.207 12.121-0.91 0.258-9.109-1.477-9.992-4.649-0.812-2.937 4.289-5.148-0.215-7.472" fill="#010202"/>
  <path d="m178.82 141.18s-5.062 9-3.648 14.461c1.969 7.718 11.594 13.746 11.078 24.328" fill="none" stroke="#010202" stroke-width="2.286"/>
  <path d="m250.98 227.12s-0.247-2.137 0.527-3.176c0.75-1.031 1.101-3.882 1.008-4.769-0.086-0.871 0.418-1.106-4.43-1.969 4.207-1.621 11.203 1.063 12.621 2.168 1.395 1.067 2.215 7.988 4.125 9.137-0.867 1.64-4.336 1.133-4.336 1.133z" fill="#ffd730"/>
  <g clip-path="url(#clipPath5945)">
   <path d="m250.98 227.12s-0.247-2.137 0.527-3.176c0.75-1.031 1.101-3.882 1.008-4.769-0.086-0.871 0.418-1.106-4.43-1.969 4.207-1.621 11.203 1.063 12.621 2.168 1.395 1.067 2.215 7.988 4.125 9.137-0.867 1.64-4.336 1.133-4.336 1.133z" fill="none" stroke="#010202" stroke-width="2.286"/>
  </g>
  <g clip-path="url(#clipPath5961)">
   <path d="m1.32 3.012 281.94 292.91" fill="none" stroke="#010202" stroke-miterlimit="7" stroke-width="2.286"/>
  </g>
  <g clip-path="url(#clipPath5977)">
   <path d="m152.31 1.141h151.36v222.48c0 79.941-67.723 144.75-151.26 144.75-83.555 0-151.27-64.812-151.27-144.75v-222.48z" fill="none" stroke="#010202" stroke-width="2.286"/>
  </g>
 </g>
</svg>
